<?xml version="1.0" encoding="UTF-8" standalone="no"?><svg xmlns="http://www.w3.org/2000/svg" xmlns:xlink="http://www.w3.org/1999/xlink" contentStyleType="text/css" height="248px" preserveAspectRatio="none" style="width:700px;height:248px;background:#FFFFFF;" version="1.1" viewBox="0 0 700 248" width="700px" zoomAndPan="magnify"><defs/><g><text fill="#000000" font-family="sans-serif" font-size="14" font-weight="bold" lengthAdjust="spacing" textLength="88" x="299.25" y="22.9951">Game Flow</text><g id="elem_prompt"><ellipse cx="332.995" cy="205.4959" fill="#F1F1F1" rx="83.995" ry="19.199" style="stroke:#181818;stroke-width:0.5;"/><text fill="#000000" font-family="sans-serif" font-size="14" lengthAdjust="spacing" textLength="128" x="268.7335" y="208.4324">Prompt Sentence</text></g><!--MD5=[d8eca564858595245321772129d300af]
entity player--><g id="elem_player"><ellipse cx="93" cy="175.7969" fill="#F1F1F1" rx="8" ry="8" style="stroke:#181818;stroke-width:0.5;"/><path d="M93,183.7969 L93,210.7969 M80,191.7969 L106,191.7969 M93,210.7969 L80,225.7969 M93,210.7969 L106,225.7969 " fill="none" style="stroke:#181818;stroke-width:0.5;"/><text fill="#000000" font-family="sans-serif" font-size="14" lengthAdjust="spacing" textLength="45" x="70.5" y="240.292">player</text></g><!--MD5=[f3929e065b321440b4eee273bd9781ea]
entity p2--><g id="elem_p2"><ellipse cx="579" cy="175.7969" fill="#F1F1F1" rx="8" ry="8" style="stroke:#181818;stroke-width:0.5;"/><path d="M579,183.7969 L579,210.7969 M566,191.7969 L592,191.7969 M579,210.7969 L566,225.7969 M579,210.7969 L592,225.7969 " fill="none" style="stroke:#181818;stroke-width:0.5;"/><text fill="#000000" font-family="sans-serif" font-size="14" lengthAdjust="spacing" textLength="57" x="550.5" y="240.292">player 2</text></g><g id="elem_StableDiffusion"><ellipse cx="332.9563" cy="67.0881" fill="#F1F1F1" rx="76.9563" ry="17.7913" style="stroke:#181818;stroke-width:0.5;"/><text fill="#000000" font-family="sans-serif" font-size="14" lengthAdjust="spacing" textLength="111" x="274.5675" y="70.8069">StableDiffusion</text></g><!--MD5=[e12fdb32cd01413c3e9353981b686a91]
entity pc--><g id="elem_pc"><rect fill="#F1F1F1" height="46.2969" rx="2.5" ry="2.5" style="stroke:#181818;stroke-width:0.5;" width="137" x="557.5" y="44.2969"/><rect fill="#F1F1F1" height="10" style="stroke:#181818;stroke-width:0.5;" width="15" x="674.5" y="49.2969"/><rect fill="#F1F1F1" height="2" style="stroke:#181818;stroke-width:0.5;" width="4" x="672.5" y="51.2969"/><rect fill="#F1F1F1" height="2" style="stroke:#181818;stroke-width:0.5;" width="4" x="672.5" y="55.2969"/><text fill="#000000" font-family="sans-serif" font-size="14" lengthAdjust="spacing" textLength="97" x="572.5" y="77.292">Classroom PC</text></g><g id="elem_GMN12"><path d="M6,54.7969 L6,79.9297 A0,0 0 0 0 6,79.9297 L89,79.9297 L93,167.0022 L97,79.9297 L180,79.9297 A0,0 0 0 0 180,79.9297 L180,64.7969 L170,54.7969 L6,54.7969 A0,0 0 0 0 6,54.7969 " fill="#FEFFDD" style="stroke:#181818;stroke-width:0.5;"/><path d="M170,54.7969 L170,64.7969 L180,64.7969 L170,54.7969 " fill="#FEFFDD" style="stroke:#181818;stroke-width:0.5;"/><text fill="#000000" font-family="sans-serif" font-size="13" lengthAdjust="spacing" textLength="153" x="12" y="71.8638">Has goal like "See Paris"</text></g><!--MD5=[4d41a83ca2c49e7ab1fc04be43aa61e7]
link player to prompt--><g id="link_player_prompt"><path d="M115.579,205.2969 C144.851,205.2969 197.633,205.2969 243.86,205.2969 " fill="none" id="player-to-prompt" style="stroke:#181818;stroke-width:1.0;"/><polygon fill="#181818" points="248.886,205.2969,239.886,201.2969,243.886,205.2969,239.886,209.2969,248.886,205.2969" style="stroke:#181818;stroke-width:1.0;"/><text fill="#000000" font-family="sans-serif" font-size="13" lengthAdjust="spacing" textLength="61" x="151.75" y="183.3638">Add word</text><text fill="#000000" font-family="sans-serif" font-size="13" lengthAdjust="spacing" textLength="97" x="133.75" y="198.4966">in random spot</text></g><!--MD5=[f5b263acd1fb046c57e7cb60e7ae38ea]
reverse link prompt to p2--><g id="link_prompt_p2"><path d="M422.488,205.2969 C467.49,205.2969 518.971,205.2969 550.222,205.2969 " fill="none" id="prompt-backto-p2" style="stroke:#181818;stroke-width:1.0;"/><polygon fill="#181818" points="417.315,205.2969,426.315,209.2969,422.315,205.2969,426.315,201.2969,417.315,205.2969" style="stroke:#181818;stroke-width:1.0;"/><text fill="#000000" font-family="sans-serif" font-size="13" lengthAdjust="spacing" textLength="61" x="453.25" y="183.3638">Add word</text><text fill="#000000" font-family="sans-serif" font-size="13" lengthAdjust="spacing" textLength="97" x="435.25" y="198.4966">in random spot</text></g><!--MD5=[d4e472e709be9f4c6de073e55802adb5]
reverse link StableDiffusion to prompt--><g id="link_StableDiffusion_prompt"><path d="M333,90.5989 C333,117.2009 333,161.1696 333,185.9111 " fill="none" id="StableDiffusion-backto-prompt" style="stroke:#181818;stroke-width:1.0;"/><polygon fill="#181818" points="333,85.5209,329,94.5209,333,90.5209,337,94.5209,333,85.5209" style="stroke:#181818;stroke-width:1.0;"/><text fill="#000000" font-family="sans-serif" font-size="13" lengthAdjust="spacing" textLength="98" x="334" y="133.3638">send sentence.</text></g><!--MD5=[ceaa1a6981d50b1a882da9211c36d5de]
link StableDiffusion to pc--><g id="link_StableDiffusion_pc"><path d="M410.366,67.2969 C454.192,67.2969 508.728,67.2969 551.99,67.2969 " fill="none" id="StableDiffusion-to-pc" style="stroke:#181818;stroke-width:1.0;"/><polygon fill="#181818" points="557.208,67.2969,548.208,63.2969,552.208,67.2969,548.208,71.2969,557.208,67.2969" style="stroke:#181818;stroke-width:1.0;"/><text fill="#000000" font-family="sans-serif" font-size="13" lengthAdjust="spacing" textLength="111" x="428.25" y="60.3638">reply with image.</text></g><!--MD5=[69e35c7a10ea323b94fef971a9502e7f]
@startuml
title Game Flow
(Prompt Sentence) as prompt
player -> prompt: Add word\nin random spot
"player 2" as p2
prompt <- p2: Add word\nin random spot
prompt -up-> (StableDiffusion): send sentence.
[Classroom PC] as pc
(StableDiffusion)->pc: reply with image.
note top of player: Has goal like "See Paris"
@enduml

PlantUML version 1.2022.13beta7(Unknown compile time)
(GPL source distribution)
Java Runtime: Java(TM) SE Runtime Environment
JVM: Java HotSpot(TM) 64-Bit Server VM
Default Encoding: UTF-8
Language: en
Country: US
--></g></svg>