<?xml version="1.0" encoding="UTF-8" standalone="no"?>
<svg xmlns="http://www.w3.org/2000/svg" xmlns:xlink="http://www.w3.org/1999/xlink" contentStyleType="text/css" height="291px" preserveAspectRatio="none" style="width:499px;height:291px;background:#FFFFFF;" version="1.1" viewBox="0 0 499 291" width="499px" zoomAndPan="magnify"><defs/><g><text fill="#000000" font-family="sans-serif" font-size="14" font-weight="bold" lengthAdjust="spacing" textLength="138" x="173.9062" y="22.9951">Site Components</text><!--MD5=[bfeb4e40a9e05244ea0843bb1cef058f]
cluster cloud--><g id="cluster_cloud"><path d="M37.1412,60.8323 C41.5947,52.2706 49.1057,52.5099 54.7555,59.4751 C60.2055,51.9134 65.8384,51.2501 72.2047,58.3875 C75.7361,51.1662 80.9352,50.3963 86.8252,55.6155 C92.6118,47.4083 98.1237,45.9844 104.311,55.2137 C108.4463,46.1671 115.723,46.194 121.9526,52.8626 C126.8637,45.4992 132.1333,43.2969 138.6787,51.0548 C143.1718,44.5429 149.6965,44.7629 152.8499,52.3968 C159.9911,45.1357 167.457,46.2331 171.1423,56.0898 C175.3786,49.3649 181.6378,49.1618 186.4138,55.4569 C193.076,48.4188 198.806,48.8628 203.8738,57.2603 C211.4094,49.2494 217.354,50.4281 221.9165,60.2658 C231.0408,52.0116 239.3523,53.7891 243,65.9279 C244.4254,65.5292 245.086,66.0149 245.0285,67.5134 C253.8775,74.9888 254.8756,81.6736 244.5629,88.7284 C255.6386,93.2608 256.4561,101.7445 246.8537,108.6542 C255.6863,116.0053 257.8139,123.21 246.3353,130.0693 C254.7095,142.8094 253.0845,153.9844 236,156.9279 C237.5319,157.0211 237.9756,157.889 237.1362,159.179 C232.3205,168.154 224.4667,167.4449 219.6146,159.216 C214.2559,167.7431 208.5197,165.9545 203.6188,158.7504 C199.6535,167.1018 191.9023,166.7959 187.4998,159.1921 C182.216,166.6223 173.9674,166.3307 169.3925,158.3587 C165.8398,166.001 158.1172,166.871 153.7089,159.2372 C147.5008,168.3397 142.3474,166.1738 136.5496,158.8097 C131.6176,166.8447 125.0898,167.6047 119.5263,159.4747 C114.4017,165.983 108.1384,164.5259 104.5561,157.7381 C101.0364,167.1767 93.233,167.9162 87.7379,159.6103 C81.727,168.2157 74.5867,167.2749 70.9057,157.479 C65.962,165.5117 60.156,166.3354 54.1863,158.5645 C43.5105,166.3161 31.4603,166.1345 29,149.9279 C30.7074,149.5519 31.5934,150.2338 31.2366,152.0418 C20.0372,147.538 19.908,138.4557 27.7134,130.7998 C16.8148,125.9742 16.5015,118.0467 24.7402,110.4279 C15.1924,101.9974 15.5206,92.0998 28.9072,87.9142 C17.8795,75.7112 19.2577,64.3357 36,58.9279 C37.2843,58.8223 37.6574,59.8589 37.1412,60.8323 " fill="none" style="stroke:#181818;stroke-width:1.0;"/><text fill="#000000" font-family="sans-serif" font-size="14" font-weight="bold" lengthAdjust="spacing" textLength="75" x="98.5" y="76.923">Cloud VM</text></g><!--MD5=[22b2c9f3a262b015613f9858f220a5ed]
cluster p--><g id="cluster_p"><rect fill="none" height="97" rx="2.5" ry="2.5" style="stroke:#181818;stroke-width:1.0;" width="130" x="7" y="188.9279"/><text fill="#000000" font-family="sans-serif" font-size="14" font-weight="bold" lengthAdjust="spacing" textLength="49" x="47.5" y="203.923">Phone</text></g><!--MD5=[b7b14e8444e3c5d78ccf181a2614e889]
cluster pc--><g id="cluster_pc"><rect fill="none" height="97" rx="2.5" ry="2.5" style="stroke:#181818;stroke-width:1.0;" width="130" x="161" y="188.9279"/><text fill="#000000" font-family="sans-serif" font-size="14" font-weight="bold" lengthAdjust="spacing" textLength="110" x="171" y="203.923">Classroom PC</text></g><!--MD5=[0e8b995fe5858f23522b8409fda40674]
entity banana--><g id="elem_banana"><path d="M279.7893,94.4224 C284.4753,89.0896 289.8959,88.6687 293.5148,95.6151 C297.9182,88.0518 303.3534,88.3871 308.0408,95.3307 C311.6764,89.2023 317.6656,89.26 321.372,95.2528 C324.1404,87.5015 330.5575,87.0161 335.0442,93.6158 C339.5434,86.7019 344.3353,86.0689 349.5489,92.8596 C354.2722,86.7741 361.4738,86.6939 364.9844,94.2334 C369.0008,87.5314 373.9901,88.1219 378.3878,93.8214 C381.8028,86.2997 387.9572,85.2498 392.8047,92.4152 C397.9015,86.2749 402.677,85.7146 406.8016,93.3995 C412.2453,85.9565 416.6497,86.5228 420.984,94.4249 C425.0563,87.7373 429.6397,88.6363 434.1914,93.8949 C438.7013,86.8543 445.1252,86.3227 449.5578,93.9758 C454.3977,87.9341 459.6422,88.7765 462.612,95.8388 C465.6079,88.0305 473.0965,88.6172 477.5663,94.192 C488.5271,98.473 491.0091,109.135 482.5875,117.5777 C492.8123,126.8294 489.4575,138.2044 475.9382,140.5975 C472.7721,146.4365 465.8745,146.9826 461.9736,141.5043 C458.282,148.5111 453.6949,148.8201 447.9968,143.8448 C442.8701,149.9217 438.5047,148.4275 435.5088,141.7573 C431.401,150.0587 424.8686,148.3288 420.3444,142.1948 C416.6485,148.5931 411.8904,150.587 406.4029,144.1392 C402.6612,150.127 397.1016,151.7484 392.6129,144.9446 C388.4126,152.064 382.4736,153.7995 377.3187,145.9178 C373.596,152.4537 366.9178,152.2231 363.8738,145.2428 C357.9638,151.8111 353.4783,149.1221 349.9993,142.6553 C345.2157,149.2321 340.3197,150.0028 335.7369,142.4525 C332.3939,150.2247 326.552,150.6166 321.7378,143.8711 C317.2772,149.4052 310.6238,148.624 308.2434,141.6305 C304.0914,148.4175 298.2238,148.969 292.9562,142.9637 C288.5136,148.8528 283.8058,149.6325 279.6558,142.6611 C265.6479,140.0878 262.9894,129.8639 269.6103,118.6575 C262.0542,107.8487 266.4985,96.4752 279.7893,94.4224 " fill="#F1F1F1" style="stroke:#181818;stroke-width:0.5;"/><text fill="#000000" font-family="sans-serif" font-size="14" lengthAdjust="spacing" textLength="83" x="285.5" y="113.923">Banana.dev</text><text fill="#000000" font-family="sans-serif" font-size="14" lengthAdjust="spacing" textLength="183" x="285.5" y="130.2199">(Turnkey StableDiffusion)</text></g><!--MD5=[4541fb81c80c07473fe4b07432ef0971]
entity app--><g id="elem_app"><rect fill="#F1F1F1" height="62.5938" rx="2.5" ry="2.5" style="stroke:#181818;stroke-width:0.5;" width="198" x="37" y="85.9279"/><rect fill="#F1F1F1" height="10" style="stroke:#181818;stroke-width:0.5;" width="15" x="215" y="90.9279"/><rect fill="#F1F1F1" height="2" style="stroke:#181818;stroke-width:0.5;" width="4" x="213" y="92.9279"/><rect fill="#F1F1F1" height="2" style="stroke:#181818;stroke-width:0.5;" width="4" x="213" y="96.9279"/><text fill="#000000" font-family="sans-serif" font-size="14" lengthAdjust="spacing" textLength="158" x="52" y="118.923">Game Server (app.py)</text><text fill="#000000" font-family="sans-serif" font-size="14" lengthAdjust="spacing" textLength="123" x="52" y="135.2199">Python + FastAPI</text></g><!--MD5=[8324ec5ca4b0ddf1d0a74b74249668bd]
entity pb--><g id="elem_pb"><rect fill="#F1F1F1" height="46.2969" rx="2.5" ry="2.5" style="stroke:#181818;stroke-width:0.5;" width="98" x="23" y="223.9279"/><rect fill="#F1F1F1" height="10" style="stroke:#181818;stroke-width:0.5;" width="15" x="101" y="228.9279"/><rect fill="#F1F1F1" height="2" style="stroke:#181818;stroke-width:0.5;" width="4" x="99" y="230.9279"/><rect fill="#F1F1F1" height="2" style="stroke:#181818;stroke-width:0.5;" width="4" x="99" y="234.9279"/><text fill="#000000" font-family="sans-serif" font-size="14" lengthAdjust="spacing" textLength="58" x="38" y="256.923">Browser</text></g><!--MD5=[036f220f7a4a68367015bf50ba1d8f3f]
entity pcb--><g id="elem_pcb"><rect fill="#F1F1F1" height="46.2969" rx="2.5" ry="2.5" style="stroke:#181818;stroke-width:0.5;" width="98" x="177" y="223.9279"/><rect fill="#F1F1F1" height="10" style="stroke:#181818;stroke-width:0.5;" width="15" x="255" y="228.9279"/><rect fill="#F1F1F1" height="2" style="stroke:#181818;stroke-width:0.5;" width="4" x="253" y="230.9279"/><rect fill="#F1F1F1" height="2" style="stroke:#181818;stroke-width:0.5;" width="4" x="253" y="234.9279"/><text fill="#000000" font-family="sans-serif" font-size="14" lengthAdjust="spacing" textLength="58" x="192" y="256.923">Browser</text></g><!--MD5=[3b51b18434128c737ac73b1b8e8c8dca]
link app to banana--><g id="link_app_banana"><path d="M235.318,117.4279 C245.294,117.4279 255.27,117.4279 265.245,117.4279 " fill="none" id="app-to-banana" style="stroke:#181818;stroke-width:1.0;"/><polygon fill="#181818" points="270.462,117.4279,261.462,113.4279,265.462,117.4279,261.462,121.4279,270.462,117.4279" style="stroke:#181818;stroke-width:1.0;"/></g><!--MD5=[19ce1f3cae105f019dad99d2e982b8c2]
reverse link app to pb--><g id="link_app_pb"><path d="M118.321,153.6469 C107.09,176.0219 92.894,204.304 83.196,223.6234 " fill="none" id="app-backto-pb" style="stroke:#181818;stroke-width:1.0;"/><polygon fill="#181818" points="120.67,148.9669,113.0578,155.2162,118.4271,153.4356,120.2077,158.8049,120.67,148.9669" style="stroke:#181818;stroke-width:1.0;"/></g><!--MD5=[99fba9c03863e9a450e6a3364e73e8dc]
reverse link app to pcb--><g id="link_app_pcb"><path d="M160.465,153.0859 C176.32,175.5479 196.504,204.1424 210.256,223.6234 " fill="none" id="app-backto-pcb" style="stroke:#181818;stroke-width:1.0;"/><polygon fill="#181818" points="157.557,148.9669,159.479,158.6264,160.4403,153.0518,166.0149,154.0131,157.557,148.9669" style="stroke:#181818;stroke-width:1.0;"/></g><!--MD5=[af0243bc7222a1b10b730677ecd034c6]
@startuml
title Site Components

cloud "Banana.dev\n(Turnkey StableDiffusion)" as banana {

}

cloud "Cloud VM" as cloud {
    [Game Server (app.py)\nPython + FastAPI] as app
}

app -> banana

rectangle Phone as p {
    [Browser] as pb
}

app <- - pb

rectangle "Classroom PC" as pc {
    [Browser] as pcb
}

app <- - pcb
@enduml

PlantUML version 1.2022.13beta7(Unknown compile time)
(GPL source distribution)
Java Runtime: Java(TM) SE Runtime Environment
JVM: Java HotSpot(TM) 64-Bit Server VM
Default Encoding: UTF-8
Language: en
Country: US
--></g></svg>