<?xml version="1.0" encoding="UTF-8"?>
<svg viewBox="0 0 300 300" xmlns="http://www.w3.org/2000/svg">
 <defs>
  <radialGradient id="d" cx="-1227.2" cy="300.87" r="326.23" gradientUnits="userSpaceOnUse">
   <stop stop-opacity="0" offset="0"/>
   <stop stop-color="#343434" offset=".6582"/>
   <stop stop-color="#3a3a3a" offset=".8242"/>
   <stop stop-color="#3a3a3a" offset="1"/>
  </radialGradient>
  <radialGradient id="c" cx="-1227.2" cy="300.87" r="242.5" gradientUnits="userSpaceOnUse">
   <stop stop-opacity="0" offset="0"/>
   <stop stop-color="#707070" offset=".9571"/>
   <stop stop-color="#343434" offset="1"/>
  </radialGradient>
  <radialGradient id="b" cx="-1227.2" cy="300.87" r="345.5" gradientUnits="userSpaceOnUse">
   <stop stop-opacity="0" offset="0"/>
   <stop stop-color="#565656" offset=".9255"/>
   <stop stop-color="#222" offset=".9489"/>
   <stop stop-color="#252525" offset=".9861"/>
   <stop stop-color="#202020" offset="1"/>
  </radialGradient>
  <radialGradient id="a" cx="-1227.2" cy="300.87" r="348.46" gradientUnits="userSpaceOnUse">
   <stop stop-opacity="0" offset="0"/>
   <stop stop-color="#323232" offset=".9255"/>
   <stop stop-color="#2f2f2f" offset=".9489"/>
   <stop stop-color="#49494c" offset=".9861"/>
   <stop stop-color="#202020" offset="1"/>
  </radialGradient>
 </defs>
 <g transform="matrix(.43047 0 0 .43047 636.48 8.644)">
  <g transform="translate(97.123 27.501)">
   <path d="m-1227.3-25.384c-180.18 0-326.22 146.07-326.22 326.25s146.04 326.25 326.22 326.25 326.25-146.07 326.25-326.25-146.07-326.25-326.25-326.25zm0 92.594c129.04 0 233.66 104.62 233.66 233.66s-104.62 233.66-233.66 233.66-233.62-104.62-233.62-233.66 104.59-233.66 233.62-233.66z" fill="url(#d)"/>
   <path d="m-1225.7311-25.3844v92.625c.7405.005 1.4798-.0116 2.2187,0v-92.59375c-.7384-.008-1.4792-.0278-2.2187-.0312zm-166.5938,44.8125c-.624.36685-1.2537.72287-1.875,1.09375l46.3125,80.21875c.6214-.37539 1.2499-.75525 1.875-1.125l-46.3125-80.1875zm334.0625,2.3125-46.3437,80.25c.6254.38653 1.2535.764 1.875,1.15625l46.3125-80.25c-.6161-.37951-1.225-.78073-1.8438-1.15625zm-455.125,122.3437c-.3549.6466-.7118,1.2884-1.0625,1.9376l80.25,46.3124c.3408-.6486.6846-1.2924 1.0313-1.9374l-80.2188-46.3126zm573.53126,2.3126-80.24996,46.3124c.3439.6575.6933,1.3077 1.0312,1.9688l80.25001-46.3438c-.34311-.6474-.68392-1.2926-1.03125-1.9374zm-613.46876,164.5624c.022.7351.067,1.485.094,2.2188h92.6875c-.038-.7375-.094-1.4794-.125-2.2188h-92.6562zm559.50001,0c-.0314.7394-.0867,1.4813-.125,2.2188h92.6875c.0272-.7338.0714-1.4837.0937-2.2188h-92.65625zm-34.81251,113c-.3832.617-.7675,1.2307-1.1562,1.8438l80.24996,46.3438c.38498-.6229.77535-1.2495 1.15625-1.875l-80.25001-46.3126zm-395.8125,2.2188-80.25,46.3438c.3819.616.7704,1.2304 1.1563,1.8437l80.2812-46.3437c-.3987-.6135-.7945-1.2264-1.1875-1.8438zm312.0938,78.1562c-.6352.3595-1.2674.7401-1.9063,1.0938l46.3125,80.1875c.6352-.3562 1.2737-.7022 1.9063-1.0625l-46.3125-80.2188zm-225.8438,2.25-46.2812,80.1876c.6379.3516 1.2656.715 1.9062,1.0624l46.3438-80.25c-.6517-.3442-1.3208-.6497-1.9688-1zm112.4688,27.9063v92.625c.7395,0 1.4803-.023 2.2187-.031v-92.5937c-.7389.012-1.4782,0-2.2187,0z" fill="#484848"/>
   <path d="m-1227.2-18.582c-176.4 0-319.46 143.07-319.46 319.47s143.07 319.41 319.46 319.41 319.41-143.02 319.41-319.41-143.02-319.47-319.41-319.47zm0 2.9161c174.83 0 316.5 141.72 316.5 316.55s-141.67 316.5-316.5 316.5-316.55-141.67-316.55-316.5 141.72-316.55 316.55-316.55z" fill="#535353"/>
   <path d="m-1227.2 58.364c-133.9 0-242.52 108.62-242.52 242.52s108.62 242.48 242.52 242.48 242.48-108.59 242.48-242.48-108.59-242.52-242.48-242.52zm0 4.9339c131.24 0 237.55 106.35 237.55 237.59s-106.31 237.55-237.55 237.55-237.59-106.31-237.59-237.55 106.35-237.59 237.59-237.59z" fill="url(#c)"/>
   <path d="m-908.07 300.87c0 176.28-142.9 319.18-319.18 319.18s-319.18-142.9-319.18-319.18 142.9-319.18 319.18-319.18 319.18 142.9 319.18 319.18z" fill="none" stroke="#272727" stroke-width="1.6954"/>
   <path d="m-1227.2 62.871c-131.41 0-238.01 106.59-238.01 238.01s106.59 237.97 238.01 237.97 237.97-106.56 237.97-237.97-106.56-238.01-237.97-238.01zm0 4.3992c129.03 0 233.57 104.58 233.57 233.61s-104.54 233.57-233.57 233.57-233.61-104.54-233.61-233.57 104.58-233.61 233.61-233.61z" fill="#2d2d2d"/>
   <path d="m-1227.2-44.65c-190.82 0-345.5 154.68-345.5 345.5s154.68 345.53 345.5 345.53 345.5-154.71 345.5-345.53-154.68-345.5-345.5-345.5zm0 25.906c176.51 0 319.59 143.08 319.59 319.59s-143.08 319.62-319.59 319.62-319.59-143.11-319.59-319.62 143.08-319.59 319.59-319.59z" fill="url(#b)"/>
   <path d="m-1227.5076-47.60325c-.8212.002-1.6777.0239-2.5.0312-1.4468.0168-2.8954.0314-4.3438.0625h-.5312l-1.1563.0312-1.0625.0312-1.0937.0312-.8438.0312-1.0625.0312c-1.1871.0438-2.3756.0998-3.5625.15625l-2.2812.125c-1.5362.0827-3.0923.17851-4.625.28125l-2.2188.15625c-1.4739.10828-2.9361.21662-4.4062.34375l-.3125.0312 1.3437,24.34375 .3125-.03125 .4063-.0625 .7187-.0625 .3438-.03125c.062-.0052.1255.0052.1875,0 1.5075-.1256 3.0206-.23702 4.5312-.34375 .053-.0036.1034-.02776.1563-.03125 1.0369-.06944 2.0888-.12266 3.125-.1875 .3222-.01858.6463-.0145.9687-.03125s.6456-.0472.9688-.0625h.031 .031l1.375-.0625c.6877-.02933 1.3743-.06604 2.0625-.09375 .7769-.03438 1.5667-.06798 2.3437-.09375 .4042-.01341.8129-.04613 1.2188-.0625h.4062 .031c.4891-.01492.9796-.05038 1.4687-.0625 .2882-.0077.5817.0041.875,0 .084-.0012.1661-.03008.25-.03125 .052-.005.1055.0011.1563,0 .8448-.0176 1.6532-.0164 2.5-.03125h.4687c.4009-.0049.8186-.0281 1.2188-.03125 1.2392-.0097 2.4804-.0045 3.7187,0 .2936.00052.5814.03068.875.03125 .741.0014 1.4789-.0084 2.2188,0h.8125 .7812c.1241.0064.2472.02875.375.03125 .4693.0028.939-.01107 1.4063,0 .2239.0049.4323.02589.6562.03125 .7501.01932 1.5.06124 2.25.09375l.9375.03125 .6875.03125-2.625-24.46875v-.0312l-.7187-.0312h-.1875c-.8875-.0208-1.7713-.0224-2.6563-.0312l-2.5312-.0312h-.5c-1.0095-.008-1.9906-.0322-3-.0312zm19.6875.5625-2.125,24.28125c.4477.02347.8955.06833 1.3437.09375 .2293.01621.4588.01682.6875.03125l.4688.03125 .5312.03125 1.1875.0625 .875.0625 .375.03125 .4375.03125c.1774.01927.3537.04938.5313.0625l.5937.03125c.4605.03634.9229.08906 1.375.125 .8545.06878 1.71.11295 2.5625.1875l.75.0625 1.3438.125 .3125.03125 2.2812.25 .4063.03125c1.354.1417 2.7073.2798 4.0625.4375 .2092.02427.4162.06549.625.09375 .2701.03658.5419.06065.8125.09375 .041.005.084-.005.125,0l.1562.03125c1.1452.14131 2.2958.25509 3.4375.40625 .037.0049.057.0263.094.03125l.4062.0625c.1254.01682.2497.04532.375.0625l.4688.0625h.031l.2813.03125c.3657.04992.7283.10511 1.0937.15625 .019.0051.042-.003.062,0l.2188.03125 2.25.34375c.1761.02613.3552.0359.5312.0625 .7227.10799 1.4344.234 2.1563.34375l.5937.09375h.031l.375.0625 .4375.0625 .1875.03125 2.0937.34375h.062l.3125.0625h.062c.073.01608.1407.04879.2188.0625l1.0625.1875c.2598.04584.5211.0798.7812.125l.5938.09375 .8437-24.5625c-1.4456-.24661-2.8947-.49083-4.3437-.71875-1.3254-.20716-2.6435-.42934-3.9688-.625-.051-.007-.1053.008-.1562,0-.1882-.0276-.3741-.0669-.5625-.0937-.931-.13385-1.8822-.24867-2.8125-.375-.1776-.0239-.3539-.0678-.5313-.0937l-.9375-.125-.2812-.0312c-.3373-.0359-.6637-.0513-1-.0937-1.4852-.18992-2.9833-.38989-4.4688-.5625l-.3125-.0312c-1.1823-.13282-2.3561-.25649-3.5312-.375l-.3125-.0312h-.125c-.5933-.0593-1.1839-.12923-1.7813-.1875-.1762-.0167-.3551-.0458-.5312-.0625-.4138-.0393-.8365-.0871-1.25-.125h-.031c-.5416-.0483-1.0828-.11061-1.625-.15625l-.5312-.0312c-.2082-.0173-.4166-.0457-.625-.0625-.4678-.0378-.9373-.0588-1.4063-.0937l-.4062-.0312-.2188-.0312-.5312-.0312-.2813-.0312-.5625-.0312h-.031l-1.2813-.0937c-.25-.0172-.5003-.0451-.75-.0625-1.1985-.0703-2.3963-.12077-3.5937-.1875zm-59.8438,1.78125c-.6141.0701-1.2294.144-1.8437.21875l-.375.0312-1.2188.15625-.2812.0312c-.032.004-.062.0199-.094.0312-.041.0148-.083.0259-.125.0312l-.5.0625c-.563.0729-1.1257.14366-1.6875.21875l-2.25.3125c-.1762.0263-.3544.0371-.5312.0625-1.018.14648-2.0198.31638-3.0313.46875-1.4.21177-2.794.42647-4.1875.65625-.3547.0585-.7075.12874-1.0625.1875-.3279.0545-.6724.10087-1,.15625l-.5937.0937-.5.0937-.9063.15625c-.082.0163-.1665.0154-.25.0312l-.2187.0312h-.031c-.022.008-.04.0271-.062.0312l-.2812.0312-.5313.0937c-.2087.0374-.4161.0872-.625.125l-.5937.0937-.6875.125c-.2087.0386-.4169.0861-.625.125h-.031c-.014.003-.018.0297-.031.0312h-.062c-.029.003-.066.0255-.094.0312s-.064-.005-.094,0l-.3438.0625c-.022.009-.04.0269-.062.0312-.5026.0962-.9993.1822-1.5.28125l-.3125.0625-.1875.0312c-.029.006-.065.0252-.094.0312-.2663.0605-.5419.0991-.8125.15625-.1686.0356-.3315.0909-.5.125-.031.006-.062.002-.094,0h-.031l-.125.0312-.9688.1875-.125.0312-.125.0312c-.072.0153-.1469.0157-.2187.0312-.3272.0647-.6715.14983-1,.21875l-.125.0312h-.062l-.3125.0625c-.5551.11645-1.104.25403-1.6563.375l-.3437.0625-.7188.15625-.4062.0937-.25.0625-.2188.0312-.4062.0937-1.0313.25c-.4996.11573-.9995.23081-1.5.34375l-.2812.0625-.1563.0312 4.7813,23.875v.03125c.1549-.03651.3137-.05751.4687-.09375 .946-.22109 1.898-.41054 2.8438-.625 1.2386-.28087 2.4716-.58352 3.7187-.84375l.9063-.1875 .4687-.09375 1.5-.3125c.084-.01683.1659-.04623.25-.0625 .581-.11244 1.1695-.20025 1.75-.3125l.1875-.03125c.3081-.06313.6289-.15956.9375-.21875 .2606-.04997.5199-.11046.7813-.15625 .3843-.06733.7711-.11867 1.1562-.1875l2.3438-.40625 .1562-.03125c.9086-.16164 1.8097-.34696 2.7188-.5 .6031-.10151 1.2083-.18314 1.8125-.28125 .6568-.10666 1.3118-.21552 1.9687-.3125 .2388-.03526.4802-.05759.7188-.09375 .1153-.01779.2283-.04531.3437-.0625l.2813-.03125 .8437-.125c.1782-.02637.3528-.06749.5313-.09375 1.41-.20788 2.8081-.40488 4.2187-.59375l.4688-.0625c1.6296-.21582 3.276-.43441 4.9062-.625l.375-.03125c.282-.03508.5612-.09081.8438-.125h.062l.1875-.03125c.4268-.04673.8542-.07984 1.2812-.125h.031c.1865-.02573.3748-.03903.5625-.0625 .043-.0053.082-.02669.125-.03125l-6.0635-23.84375h-.094zm108.5625,4.40625-5.5,23.75 .6875.125c.1358.02702.2704.06579.4063.09375l.3125.0625 1.0312.21875 .1875.03125 .25.0625 .1875.03125 .1875.03125 .2813.0625 .875.1875 1,.21875 .2812.0625h.062c.6372.13726 1.2704.29361 1.9063.4375l.125.03125c.1756.04031.3552.0855.5312.125l.3125.0625 .3438.0625 .5312.125 .4688.09375 .1562.03125 .125.03125c.053.01963.101.04934.1563.0625 .1151.02668.2288.03608.3437.0625l.9375.21875c.2603.06306.5207.12528.7813.1875l.5937.125c.2607.06183.5211.12375.7813.1875l.094.03125 .6563.15625c.3341.08389.6664.16351 1,.25 .5836.15369 1.1643.31754 1.75.46875 .3141.07825.6235.13823.9375.21875 .016.0041.047.02492.062.03125 .021.0053.042.02595.062.03125 .5485.14092 1.0782.29364 1.625.4375 .029.0076.065-.0076.094,0l.4063.09375c.481.12836.9575.27394 1.4375.40625l.25.0625c.9388.25351 1.8774.51962 2.8125.78125 .5752.16218 1.1446.30343 1.7187.46875l.125.03125c1.2236.35025 2.4403.72424 3.6563,1.09375 .457.13406.9186.27046 1.375.40625l1.625.5h.031c.5566.16936 1.1033.35967 1.6563.53125 .028.0088.065-.0088.094,0l.9063.28125c.053.01689.1029.04554.1562.0625l.5.15625 .062.03125 4.1563-24.21875v-.0312c-.5744-.17856-1.1439-.3557-1.7188-.53125-.086-.0257-.1646-.0355-.25-.0625-.1142-.035-.2298-.057-.3437-.0937-.3063-.0929-.5999-.22042-.9063-.3125l-.25-.0625c-.3155-.095-.6236-.18766-.9375-.28125l-.25-.0625c-.2274-.0673-.4598-.11962-.6875-.1875l-1.25-.375-.8125-.25c-.019-.005-.043.005-.062,0-.3647-.10513-.7295-.20767-1.0937-.3125-.022-.006-.04-.025-.062-.0312l-.2188-.0625-2.4375-.6875-1.7187-.46875c-1.106-.29802-2.2071-.59078-3.3125-.875l-.375-.0937h-.031l-.062-.0312-.1562-.0312-.375-.0937-.4063-.0937-2.7812-.6875c-.9835-.24057-1.9816-.48621-2.9688-.71875l-1.3125-.3125-.5625-.125-1.3125-.3125c-.405-.0919-.8135-.16189-1.2187-.25-.074-.0164-.1452-.0462-.2188-.0625l-3.0312-.65625-1.2813-.28125-1.7812-.375c-.4672-.0951-.9384-.18687-1.4063-.28125zm-156.7187,4.71875-1.0625.28125c-1.117.29719-2.232.59238-3.3438.90625-.022.006-.041.0252-.062.0312-.7177.20274-1.4388.38927-2.1562.59375l-1.0625.3125c-.4055.11569-.8139.22675-1.2188.34375-1.472.4282-2.9419.86523-4.4062,1.3125-.5115.15182-1.0269.3116-1.5313.46875-.4918.15266-.9797.31196-1.4687.46875l-.062.0312-.5.15625c-.1877.0533-.3783.0975-.5625.15625-.085.0272-.1653.0666-.25.0937l-.125.0312-.1875.0625c-1.1006.35308-2.1855.69891-3.2813,1.0625l-.1562.0625-1.0313.34375-.8437.28125-2.125.71875-.062.0312c-.1368.0526-.2643.10735-.4063.15625l-.4687.15625c-1.2264.43101-2.4625.86711-3.6875,1.3125-.1949.0705-.3987.11736-.5938.1875-.013.005-.019.0267-.031.0312-1.1718.42847-2.3299.87084-3.5,1.3125-.259.0975-.5227.18312-.7813.28125v.0312l7.9375,23v.03125l.1875-.0625 .4688-.21875c.6597-.25044 1.3363-.47453 2-.71875 1.6204-.59628 3.242-1.18494 4.875-1.75 .169-.05967.3309-.12824.5-.1875 .2391-.08523.4791-.16599.7187-.25 .2838-.0988.5571-.18752.8438-.28125 .05-.01705.1051-.01737.1562-.03125l.062-.03125c.1781-.06178.353-.12605.5313-.1875 .1335-.04569.2721-.07957.4062-.125l.6875-.25 .125-.03125 .1563-.0625 .4687-.15625 .1875-.0625 .2188-.0625c.6038-.2087 1.2059-.42639 1.8125-.625 .1906-.06295.3718-.1253.5625-.1875l.7812-.25 2-.65625 .125-.03125c.1784-.0567.3561-.1019.5313-.15625 .1268-.03999.2492-.08557.375-.125 .1766-.05517.3544-.10157.5312-.15625 .157-.04873.3117-.10777.4688-.15625l.2187-.0625 .1875-.0625 .2188-.0625 .125-.03125c.3677-.11942.7221-.26188 1.0937-.375 .3554-.1082.7069-.2056 1.0625-.3125 1.1869-.35661 2.3704-.68802 3.5625-1.03125 .022-.0063.041-.02509.062-.03125 .2483-.06958.502-.11722.75-.1875 1.0731-.30406 2.1445-.61198 3.2188-.90625l.625-.1875c.1341-.03647.2721-.05726.4062-.09375 .7681-.20653 1.5428-.39136 2.3125-.59375 .1282-.03611.2466-.09176.375-.125 .029-.0076.065.0076.094,0 .4597-.12009.9142-.25746 1.375-.375l.094-.03125 .4063-.09375c.1375-.03501.2686-.09017.4062-.125v-.03125l-9.3437-22.71875zm201.9062,7.46875v.0312l-8.6562,22.78125c.097.03314.1851.08946.2812.125h.031 .031l.094.03125 .125.03125c.034.01197.059.05043.094.0625 .028.0165.063.02046.094.03125l.062.03125 .8125.28125c.3834.14051.7708.27073 1.1562.40625 .5005.17597.9987.35746 1.5.53125l.094.03125c.019.0064.044-.0064.062,0 .116.03691.2288.08503.3437.125 .5123.18517 1.0502.37637 1.5625.5625l.4375.15625c.043.0159.082.04658.125.0625 .1024.03627.2107.05626.3125.09375l.4375.15625c.1241.04502.2495.07849.375.125 .3042.11965.6002.26033.9063.375 .1977.07348.3958.14347.5937.21875l1,.375c.065.02471.1226.0684.1875.09375 .038.01554.087.01626.125.03125l.1563.0625c.3143.12148.6252.2575.9375.375l.3125.125c.1219.04614.2532.07888.375.125 .043.01633.082.04577.125.0625l.8125.3125c.5008.19543.9999.39493 1.5.59375 .2785.11052.5658.20097.8437.3125 .3259.13079.6466.2694.9688.40625 .013.0056.049.02556.062.03125 .067.02748.1197.0671.1875.09375l.1875.0625 .1562.0625 .375.15625 .3125.125 .094.03125c.2907.11553.5864.22446.875.34375l.094.03125c.147.05978.2905.12838.4375.1875l.062.03125c.039.01541.086.01497.125.03125 .065.02555.1235.06699.1875.09375 .225.09579.469.18786.6875.28125 .2702.11588.5414.22897.8125.34375l.7188.3125 .4375.1875c1.1812.50478 2.3562,1.01173 3.5312,1.53125 .3024.1336.6043.27176.9063.40625l1.4375.65625c.4558.20316.9211.38615 1.375.59375 1.2345.56182 2.4627,1.14265 3.6875,1.71875 .4042.1911.8135.3724 1.2187.5625 .3249.15241.646.3132.9688.46875l.062.03125c.074.04076.1432.08826.2187.125h.031l1.0937.53125 .062.03125 7.5001-23.375c-.9561-.45288-1.9203-.92975-2.875-1.375-1.1947-.5572-2.3968-1.08403-3.5938-1.625-.8446-.3817-1.6824-.78118-2.5313-1.15625-.1619-.0712-.3067-.1478-.4687-.21875-.2307-.10142-.4877-.18033-.7188-.28125-1.8427-.80497-3.6847-1.60244-5.5312-2.375-.013-.0053-.019-.02598-.031-.03125-.1334-.05579-.2728-.10078-.4062-.15625-.3516-.14606-.7118-.29377-1.0625-.4375-.013-.0052-.019-.02605-.031-.03125-.062-.02494-.1568-.06848-.2187-.09375l-1.3125-.53125-1.0313-.40625-.062-.03125-.125-.03125-2.0312-.8125c-1.0915-.43359-2.1853-.86023-3.2813-1.28125l-.2812-.0937-.7813-.3125c-.014-.005-.018.005-.031,0-.2798-.10562-.5631-.20744-.8438-.3125-.3646-.13619-.7606-.27149-1.125-.40625l-.75-.28125-.75-.28125-1.7812-.65625c-.071-.0253-.1483-.0374-.2188-.0625-.1562-.054-.3097-.12973-.4687-.1875-.2177-.0774-.4388-.14158-.6563-.21875-.107-.0387-.2076-.0855-.3125-.125l-.7812-.28125c-.049-.0172-.1072-.0141-.1563-.0312-.043-.0153-.082-.0472-.125-.0625-.013-.004-.019-.0268-.031-.0312l-.1875-.0625c-.5113-.17883-1.017-.35607-1.5313-.53125zm-246.25,7.46875c-1.5333.63154-3.0746,1.25703-4.5937,1.90625-1.2979.55464-2.587,1.11891-3.875,1.6875l-1.9063.84375-.625.28125-1.0312.46875c-1.7761.8112-3.5275,1.63584-5.2813,2.46875-.1051.05009-.2075.10599-.3125.15625h-.031l-.062.03125c-.1051.05028-.2075.10598-.3125.15625s-.2321.10273-.3438.15625l-.5625.28125-.9062.4375c-.8472.41303-1.6929.83173-2.5313,1.25-.859.42833-1.7108.8475-2.5625,1.28125l-.094.03125c-.4313.22141-.8492.46512-1.2813.6875-.4463.22996-.899.45457-1.3437.6875-.8137.41268-1.6281.82218-2.4375,1.25-.053.02822-.1029.06543-.1563.09375l-.25.125c-.4302.22827-.8516.48189-1.2812.71875-.4662.25696-.9406.4974-1.4063.75l-.75.40625-1.2812.71875 11.0937,21.6875 .094-.0625 .062-.03125h.031c.1148-.06197.2284-.12607.3438-.1875l.2812-.15625c.9353-.51436 1.8703-1.02958 2.8125-1.53125l.4688-.25 .9687-.5 .031-.03125c.1031-.05527.2114-.0998.3125-.15625 .5388-.28502 1.0842-.56162 1.625-.84375 1.106-.57703 2.2291-1.1224 3.3437-1.6875 .1514-.07697.2857-.17381.4375-.25l.9375-.46875 2.9688-1.46875 .1562-.0625 .625-.3125 1-.46875c1.2305-.59271 2.4791-1.20356 3.7188-1.78125 .1861-.08657.3752-.16393.5625-.25l2.375-1.09375c.2252-.10155.4619-.18021.6875-.28125 .3107-.13776.6283-.29876.9375-.4375 .058-.02561.099-.03689.1562-.0625 .037-.01979.086-.04525.125-.0625l.8438-.375c.061-.02706.096-.06667.1562-.09375l1.6563-.71875c.1452-.06308.2921-.12462.4375-.1875 .5187-.22176 1.0434-.43411 1.5625-.65625l1.5937-.6875c.1768-.07449.3543-.14435.5313-.21875 .6657-.27815 1.3327-.57024 2-.84375 .2112-.08713.4136-.16304.625-.25 .1549-.06369.3142-.12454.4687-.1875l.3438-.15625c.2505-.1125.4971-.2356.75-.34375 .1333-.05702.2712-.10208.4062-.15625l-.031-.03125-12.2813-21.21875zm291.4376,11.78125-11.75,21.3125 .625.3125 .125.0625 1.6875.875c.2235.11587.4348.25505.6563.375 .2252.12199.4606.22476.6875.34375 .6193.32379 1.2276.66842 1.8437,1 .051.0262.1072.03623.1563.0625l.1562.09375c.5622.30341 1.1275.60251 1.6875.90625l.062.03125 .031.03125c.1321.0689.2754.11625.4062.1875s.2718.14486.4063.21875l.4375.25c.8086.44354 1.602.91935 2.4062,1.375 .288.16317.5868.30611.875.46875 .066.03696.1219.08799.1875.125 .2086.11779.4167.2255.625.34375 .199.11186.3959.23097.5938.34375l.8437.46875h.031c.6668.38198 1.335.76686 2,1.15625l1.375.8125c.028.01648.066.01476.094.03125l.1563.09375c.045.02654.08.06714.125.09375 .1484.08826.2888.19193.4375.28125l.6562.375 .3125.1875 .125.0625c.4798.29081.9588.58517 1.4375.875 .5249.31005 1.0434.61827 1.5625.9375 .3741.23008.7517.48717 1.125.71875l1.875,1.15625 .031.03125 .125.0625c.1075.06757.2048.1508.3125.21875 .7693.48557 1.5498.94799 2.3125,1.4375 .2249.14496.4626.32345.6875.46875l.031.03125 .3438.21875c.091.05849.191.09841.2812.15625 .4945.31696.9745.64447 1.4688.96875 .1869.12552.377.24734.5625.375 .2539.16819.5288.32964.7812.5 .6032.40018 1.1805.81414 1.7812,1.21875l10.7188-22.09375 .031-.0625-.062-.03125c-.7432-.48971-1.5023-.95317-2.25-1.4375-.4574-.2966-.9163-.58052-1.375-.875-.7061-.45317-1.3875-.89517-2.0938-1.34375-.2854-.18015-.5583-.38339-.8437-.5625-.2107-.13214-.4142-.27462-.625-.40625-.2835-.1773-.5911-.35479-.875-.53125-.3614-.22411-.7318-.43363-1.0938-.65625-1.0069-.61925-2.0195-1.2359-3.0312-1.84375l-.094-.0625c-.2685-.16127-.5346-.33465-.8125-.5-.1168-.06966-.2269-.14924-.3437-.21875l-.9063-.53125c-.314-.18638-.6541-.37734-.9687-.5625l-.062-.03125c-.045-.0261-.082-.0651-.125-.09375l-.2188-.125c-.054-.03185-.1025-.03064-.1562-.0625-.2425-.14009-.4762-.29702-.7188-.4375-1.0575-.60716-2.1255-1.21067-3.1875-1.8125l-.094-.0625-1.0625-.59375-1.8438-1.03125c-.4431-.24611-.8992-.47426-1.3437-.71875-.8466-.46697-1.685-.95113-2.5313-1.40625-.4571-.24581-.918-.47603-1.375-.71875-1.8053-.96415-3.6167-1.91204-5.4375-2.84375zm-335.4063,10.0625c-1.9775,1.16699-3.928,2.3594-5.875,3.5625l-.7188.4375c-1.4577.90438-2.902,1.82679-4.3437,2.75-1.0983.7033-2.1934,1.40946-3.2813,2.125l-.1562.09375c-6.0648,3.99421-11.9757,8.16872-17.75,12.5l13.9687,19.9375c.1897-.14246.3731-.2942.5625-.4375 .037-.02776.056-.03453.094-.0625 .5033-.37801 1.0261-.75028 1.5312-1.125 .079-.05853.1694-.1009.25-.15625 .096-.07048.1856-.14835.2813-.21875 .2329-.17229.4547-.3589.6875-.53125l.062-.03125 .031-.03125c1.0788-.78931 2.1581-1.5677 3.25-2.34375 .037-.02658.088-.03593.125-.0625 .078-.05532.1433-.12804.2188-.1875l.3125-.21875 .375-.28125c.1366-.0967.2694-.1847.4062-.28125l1.125-.78125 .8438-.59375 .4062-.28125 .1875-.125 .031-.03125c.027-.01837.063-.01853.094-.03125l.094-.0625 .2187-.15625c1.3219-.9081 2.6314-1.83165 3.9688-2.71875 .096-.06644.2138-.12459.3125-.1875 .024-.01606.038-.04638.062-.0625l.8125-.53125 .375-.25 .062-.03125c.01-.0053-.01-.02679 0-.03125 .3748-.24619.7503-.47995 1.125-.71875l.5937-.375 .031-.03125 1.2812-.8125 .1563-.09375c.4801-.3108.9535-.63017 1.4375-.9375 1.0436-.66278 2.1039-1.31744 3.1562-1.96875 .1422-.08819.295-.16163.4375-.25 .4809-.29816.9533-.61158 1.4375-.90625 .2581-.15733.5226-.31211.7813-.46875l.6875-.40625 .1562-.09375c.1161-.06979.2275-.14909.3438-.21875l.625-.375 1.0625-.625 1.375-.8125c.3144-.18442.6229-.37877.9375-.5625l.9375-.53125-15.1875-19.375zm377.25,15.125-.031.03125-14.5938,19.4375c1.5656,1.09265 3.1456,2.21579 4.6875,3.34375 .5999.43489 1.185.90511 1.7813,1.34375 .3871.28784.7704.55395 1.1562.84375 .1308.09709.2456.21423.375.3125 .2619.19452.519.40603.7813.59375 .183.14107.378.26592.5625.40625 .09.0662.1914.11955.2812.1875 1.0602.80589 2.106,1.6242 3.1563,2.4375l1,.78125c.367.29911.7234.61034 1.0937.90625 .7254.5796 1.4668,1.14034 2.1875,1.71875 .1214.09743.2538.18373.375.28125 .035.02626.059.0675.094.09375 .1549.11606.3177.22139.4688.34375 .8376.67793 1.6699,1.37676 2.5,2.0625 .1376.11291.2689.23008.4062.34375l.9375.78125c.08.06721.1697.12021.25.1875 .2324.19451.4557.39862.6875.59375l.1563.125c.4123.34582.8079.71279 1.2187,1.0625 .4961.42232 1.0069.82786 1.5,1.25l1.625,1.40625c.1447.12596.2929.24877.4375.375 .5067.44176.9968.89851 1.5,1.34375l.125.09375c.3208.28423.6494.55799.9688.84375 .09.07645.1902.14282.2812.21875 .085.07085.165.14779.25.21875 .2438.20346.4828.41197.7188.625l13.68746-20.34375c-2.31684-2.05194-4.64676-4.08179-6.99996-6.0625l-.1875-.15625-.031-.03125c-2.4054-2.02132-4.8365-3.98967-7.2813-5.9375-.093-.0739-.1923-.14015-.2812-.21875-.055-.04866-.099-.11062-.1563-.15625-.5766-.45779-1.1695-.89145-1.75-1.34375-.9606-.7484-1.9113-1.51132-2.875-2.25-.1366-.10423-.2695-.20845-.4062-.3125-.4752-.3631-.9291-.73741-1.4063-1.09375-.06-.04486-.1275-.08016-.1875-.125l-1-.75c-.6037-.44954-1.207-.89719-1.8125-1.34375-.083-.06118-.1627-.12987-.25-.1875-.1139-.07517-.2357-.13897-.3437-.21875-.2211-.16206-.4381-.33243-.6563-.5l-.1875-.125c-.1098-.07873-.2045-.16869-.3125-.25-.1451-.10528-.2902-.21041-.4375-.3125l-.1875-.125c-.096-.06927-.1848-.14958-.2812-.21875l-1.0313-.71875h-.031c-.037-.02636-.058-.06518-.094-.09375l-2.4375-1.71875zm-417.4063,12.5-.125.09375c-.1501.11969-.2876.22381-.4375.34375-.094.07227-.1885.14436-.2812.21875l-.625.5-1.0938.875-.031.03125-.031.03125-.9375.75c-.5157.42097-1.0194.85758-1.5312,1.28125-.1825.15101-.3493.31762-.5313.46875-2.5294,2.10102-5.0279,4.19977-7.5,6.375-.4761.4284-.956.85253-1.4375,1.28125-.8797.78268-1.7523,1.58105-2.625,2.375l-.094.09375-.125.09375-.3125.28125-.062.0625c-.038.03495-.087.05877-.125.09375-.8401.76682-1.6707,1.53695-2.5,2.3125l-.5.46875-.062.0625-.031.03125c-.041.03243-.087.0583-.125.09375l-.8437.8125c-.2152.20274-.4416.3915-.6563.59375l-.375.34375c-.4302.41205-.8493.83379-1.2812,1.25l-.031.03125c-.1698.16292-.3306.33674-.5.5-.058.05632-.1291.09992-.1875.15625-.2223.21391-.4345.44067-.6562.65625-.1231.11621-.2537.22557-.375.34375-.2441.23481-.4755.48301-.7188.71875l-.031.03125-.062.0625-.8438.8125-.75.75-.1562.15625c-.1817.18219-.3492.38038-.5313.5625l16.6563,17.78125c.079-.07937.2019-.17058.2812-.25 .032-.02978.031-.06261.062-.09375 1.5891-1.58826 3.194-3.13611 4.8125-4.6875 .1117-.10706.2007-.20563.3125-.3125s.2319-.20604.3438-.3125c.3319-.31636.698-.65392 1.0312-.96875 .1529-.14539.2829-.26162.4375-.40625 .5142-.48398 1.047-.95452 1.5625-1.4375 1.1522-1.0767 2.2988-2.15728 3.4688-3.21875 .038-.03467.057-.08919.094-.125 .01-.0052.025.0052.031,0 1.4333-1.29891 2.8835-2.56866 4.3437-3.84375l.062-.0625 .125-.09375 .4688-.40625 2.0625-1.78125 .7812-.65625c.1567-.1333.3118-.27423.4688-.40625 .1143-.09614.2288-.18677.3437-.28125 .9188-.77305 1.8519-1.54926 2.7813-2.3125 .7947-.65392 1.5769-1.32151 2.375-1.96875 .1729-.14025.3578-.26672.5312-.40625 .082-.06535.168-.12295.25-.1875 .075-.0603.1436-.12725.2188-.1875l.75-.59375 .9062-.71875 1.25-.96875c.018-.01469.044-.04857.062-.0625l-17.75-17.03125zm455.50006,18.53125-17.21876,17.21875 .5313.46875c2.0296,1.90339 3.9968,3.86964 5.96871,5.84375 .005.0053.026-.0053.0312,0l1.34375,1.34375c.28375.28928.55793.58768.84375.875 .17148.17238.36064.32667.53125.5l.21875.21875c.0254.02595.0371.06788.0625.09375 .40293.41036.81533.80455 1.21875,1.21875l1.125,1.15625 .0312.03125 .0625.0625 .40625.40625c.4033.41803.78867.85598 1.1875,1.28125 .0524.05457.10212.10755.15625.15625 .10078.10756.21185.20505.3125.3125 .0107.02093.0149.04595.0312.0625 .0367.03982.0887.08146.125.125 .0905.09658.19074.185.28125.28125 .11272.11973.2312.22391.34375.34375 .0806.07484.14088.1726.21875.25 .0599.06483.12707.12293.1875.1875l.0312.03125c.0743.08195.14331.16935.21875.25 .38073.40778.74404.83676 1.125,1.25 .47579.5161.9687,1.01715 1.4375,1.53125 .4524.49317.92547.97015 1.375,1.46875l.0312.03125 .3125.34375 .21875.25c.0424.05141.0805.10665.125.15625l.4375.5c.41965.46917.86476.93503 1.28125,1.40625 .35623.40356.70584.80993 1.0625,1.21875 1.05411,1.20823 2.11833,2.42998 3.15625,3.65625 .0918.10819.18954.2042.28125.3125l16.3125-18.34375c-.23591-.27514-.45421-.56536-.6875-.84375-.17928-.20626-.35144-.41951-.53125-.625-.22362-.26531-.46015-.52105-.6875-.78125l-.59375-.6875c-.0696-.07856-.14914-.14028-.21875-.21875-.10795-.12251-.20449-.25272-.3125-.375-1.09675-1.23727-2.20537-2.46752-3.3125-3.6875l-1.03125-1.125c-.0498-.05422-.10642-.10204-.15625-.15625-.91443-.9958-1.85818-1.98453-2.78125-2.96875-.68653-.725-1.36921-1.45968-2.0625-2.1875-.65231-.68479-1.30935-1.3577-1.96875-2.03125-.30055-.307-.60832-.60163-.90625-.90625-.19559-.19965-.36762-.39649-.5625-.59375-.0155-.01566-.047-.01559-.0625-.03125-.97755-.9865-1.94572-1.99104-2.9375-2.96875-.25671-.25408-.52721-.49351-.78125-.75-.44574-.43678-.89457-.87753-1.34375-1.3125-1.47814-1.44015-2.96743-2.83902-4.46875-4.25zm-491.65626,14.71875c-1.5859,1.6798-3.1682,3.3588-4.7188,5.0625-4.6518,5.11111-9.128,10.34442-13.4375,15.6875-1.9153,2.3747-3.7785,4.76762-5.625,7.1875l18.875,15.40625 .4375-.59375c.05-.0653.1036-.12561.1563-.1875 .1863-.21917.3833-.42574.5625-.65625 .2829-.36404.5607-.73045.8437-1.09375 .2651-.34026.5158-.69225.7813-1.03125 .3437-.43819.6849-.87582 1.0312-1.3125 .1925-.24418.4004-.47494.5938-.71875 .5469-.68978 1.0713-1.41122 1.625-2.09375 .1606-.19805.3397-.36397.5-.5625 .2132-.26413.4449-.51539.6562-.78125 .413-.50543.8342-1.02875 1.25-1.53125 .1406-.1726.2636-.36032.4063-.53125l.5-.59375c.775-.92895 1.5546-1.83374 2.3437-2.75l.062-.0625 .031-.03125c.3522-.41748.707-.83875 1.0625-1.25l.094-.09375 .6563-.75 .6875-.8125 .062-.0625 .062-.0625c.4269-.48832.8492-.98308 1.2812-1.46875 .1843-.20819.3745-.41785.5625-.625l.094-.09375c.2409-.26946.4843-.53723.7187-.8125 .082-.0911.1384-.18816.2188-.28125 .062-.06822.125-.1256.1875-.1875l.062-.0625 .094-.09375c.015-.01664.016-.04587.031-.0625l.031-.03125c.5166-.57155 1.076-1.14878 1.5938-1.71875l.2187-.25c.086-.09332.1642-.18807.25-.28125 .3468-.3807.7119-.74747 1.0625-1.125 .5763-.62058 1.1419-1.25726 1.7188-1.875 .7558-.80937 1.5136-1.61048 2.2812-2.40625 .015-.01779.015-.04548.031-.0625l-19.9375-14.34375zm523.56251,19.46875-.0312.03125-19.34375,14.75c.10087.12318.1806.25161.28125.375 1.41829,1.73863 2.84054,3.47558 4.21875,5.25 .18975.24345.37337.5059.5625.75 .41027.5317.81192,1.05903 1.21875,1.59375 .67914.88793 1.33081,1.78988 2,2.6875 .71172.95466 1.42361,1.90991 2.125,2.875 .10453.14283.20804.29451.3125.4375 .22992.31587.45857.62067.6875.9375 .32858.45243.64374.92083.96875,1.375 .0252.0355.0685.0582.0937.0937l.3125.4375c.0589.0757.13178.14075.1875.21875l.4375.625c.0579.0775.10048.17118.15625.25 .0583.0862.12735.165.1875.25 .37734.53322.72493,1.08633 1.09375,1.625l.21875.3125c.29513.43179.6093.85066.90625,1.28125 .43309.628.88531,1.24417 1.3125,1.875l.8125,1.21875c.47952.71709.96058,1.43244 1.4375,2.15625l.90625,1.375 .0625.0937c.0501.0776.075.17236.125.25l.0312.0312c.0811.12607.16916.24879.25.375l.0312.0625 .0312.0312c.0126.0194.0186.0432.0312.0625l.0312.0625 .0625.0937c.16001.2469.34064.5026.5.75 .0495.0746.10783.14353.15625.21875 .10333.15872.2101.30822.3125.46875 .0331.0509.0606.10536.0937.15625 .0764.12239.14241.2514.21875.375l.25.40625c.0877.12863.19308.24573.28125.375l.15625.25c.15566.23066.3195.4499.46875.6875l18.71875-15.875c-.39897-.62424-.78399-1.25514-1.1875-1.875-.0158-.0241-.0475-.038-.0625-.0625-.44244-.6803-.86859-1.37998-1.3125-2.0625l-.34375-.5c-.0749-.1133-.17477-.23066-.25-.34375-.0966-.14487-.18386-.29472-.28125-.4375-.10067-.14761-.2115-.28814-.3125-.4375-.31363-.46913-.62199-.93912-.9375-1.40625-.11168-.16383-.23219-.30494-.34375-.46875l-.3125-.46875c-.28808-.43586-.57861-.88191-.875-1.3125-.005-.009.006-.0225 0-.0312-.27093-.39456-.57143-.76316-.84375-1.15625-.0535-.0772-.10272-.17281-.15625-.25-.65289-.93212-1.30952-1.85707-1.96875-2.78125l-.9375-1.3125c-.16028-.22348-.31029-.45868-.46875-.6875-.0269-.03773-.0355-.05607-.0625-.09375-.23449-.33893-.47949-.67071-.71875-1l-.625-.84375-.0625-.09375c-.36473-.4985-.72781-.98466-1.09375-1.46875l-.34375-.46875-.625-.8125c-.058-.07761-.0985-.17099-.15625-.25l-.78125-1.03125c-.0364-.04817-.0573-.10815-.0937-.15625-.13127-.17509-.27488-.3265-.40625-.5-.0455-.05949-.0795-.12809-.125-.1875-.09-.11735-.19102-.22665-.28125-.34375-.15373-.19951-.31438-.39474-.46875-.59375-.0548-.07067-.10136-.14812-.15625-.21875-.0145-.01635-.0492-.04518-.0625-.0625-.21221-.27493-.41352-.5391-.625-.8125-.29227-.37468-.58234-.74864-.875-1.125-.014-.01803-.0172-.04447-.0312-.0625-1.12592-1.44792-2.26696-2.88038-3.40625-4.3125-.0929-.11529-.18804-.22882-.28125-.34375-.27266-.34152-.53821-.69183-.8125-1.03125-.0656-.08116-.12185-.16891-.1875-.25zm-553.40631,16.59375c-.5853.81588-1.17,1.61975-1.75,2.4375l-.062.0937-.062.0937-.4375.625-.031.0312c-.056.0804-.1001.16956-.1563.25-.2899.41554-.5864.83267-.875,1.25-.2005.28979-.3941.58461-.5937.875-.3731.54248-.7537,1.08069-1.125,1.625-.3641.54787-.7275,1.10996-1.0938,1.65625-.2757.40995-.5698.8077-.8437,1.21875-.021.0388-.043.0829-.062.125 0,.009.01.0234 0,.0312-.055.0821-.1015.16785-.1563.25-.1325.18938-.278.36953-.4062.5625-.3069.46421-.6013.93924-.9063,1.40625-.1115.16998-.2328.32968-.3437.5-.1144.17544-.2297.35561-.3438.53125-.071.10539-.1494.20589-.2187.3125-.1603.24764-.3092.50219-.4688.75-.099.15324-.1831.31527-.2812.46875l-.5313.8125-.3125.5c-.1349.20865-.2733.41456-.4062.625-.097.15376-.1845.3151-.2813.46875l-.1562.25c-.1453.2192-.2981.43352-.4375.65625-.097.15474-.1852.31372-.2813.46875-.1335.21127-.2731.41258-.4062.625-.044.0709-.081.14786-.125.21875l-1.2188,2c-.1225.19911-.2537.39463-.375.59375-.071.11593-.1484.22754-.2187.34375-.039.0649-.086.12205-.125.1875-.077.12274-.1443.25216-.2188.375l-.1562.25c-.017.0281-.015.0657-.031.0937-.015.034-.043.0618-.062.0937-.2018.33417-.4256.6649-.625,1-.074.12388-.1176.25154-.1875.375l-.031.0312c-.074.124-.1447.25051-.2188.375l-.031.0625-.031.0312c-.096.16132-.1856.33857-.2812.5-.038.0645-.087.1232-.125.1875l-.094.15625c-.058.099-.1293.21334-.1875.3125-.1498.2578-.2869.52385-.4375.78125-.1722.29451-.355.58282-.5312.875-.044.082-.078.16889-.125.25l-.031.0312-.031.0625c-.024.0399-.039.085-.062.125-.016.0243-.049.0386-.062.0625-.03.0527-.064.1035-.094.15625l-.031.0625c-.054.0931-.1026.18818-.1563.28125-.01.008 0,.0234 0,.0312-.076.12992-.1759.24369-.25.375-.59,1.04561-1.1636,2.11013-1.75,3.15625l20.875,12.59375c.1065-.19153.2366-.37107.3438-.5625l.4375-.78125v-.0312l.031-.0625c.2042-.37221.4154-.75562.625-1.125 .1278-.22328.2777-.43339.4063-.65625 .148-.26526.2875-.55083.4375-.8125 .082-.14252.167-.26734.25-.40625 .045-.0774.108-.14311.1562-.21875 .016-.0277.015-.0661.031-.0937 .023-.0397.04-.0846.062-.125s.042-.089.062-.125c.061-.10634.125-.20701.1875-.3125l.125-.21875c.069-.11806.1487-.22737.2187-.34375 .032-.0532.061-.13461.094-.1875 .2199-.37639.4605-.74351.6875-1.125 .329-.55714.6662-1.1036 1-1.65625 .1125-.18627.234-.37448.3437-.5625 .1372-.22814.2667-.46092.4063-.6875 .022-.0362.04-.0576.062-.0937 .039-.0641.086-.12339.125-.1875 .2202-.36374.4345-.7313.6562-1.09375 .5588-.91859 1.1196-1.83145 1.6875-2.75l.062-.0937c.3693-.59667.7511-1.18939 1.125-1.78125 .2226-.35091.4287-.71373.6563-1.0625 .016-.0253.046-.0372.062-.0625 .1144-.18098.1963-.35084.3125-.53125 .1971-.30548.3951-.603.5937-.90625 .1922-.29347.3952-.58324.5938-.875l.094-.15625 .4375-.65625c.2684-.4075.5486-.80773.8125-1.21875l.062-.0937c.075-.11304.1426-.2314.2188-.34375 .1835-.27321.3479-.53864.5312-.8125 .058-.0868.1289-.16312.1875-.25l.625-.9375 .8438-1.21875 .375-.53125c.1593-.2294.3093-.45797.4687-.6875 .085-.12356.1641-.25181.25-.375 .5403-.77944 1.0782-1.56759 1.625-2.34375 .3776-.53435.7742-1.06253 1.1563-1.59375 .1242-.17752.2487-.35555.375-.53125 .069-.0962.1495-.18503.2187-.28125 .083-.1158.1686-.22686.25-.34375 .3622-.51981.6919-1.05438 1.0625-1.5625 .092-.12932.1819-.27496.2813-.40625 .026-.0349.069-.0597.094-.0937l-21.75-11.5625zm581.62506,23.625-21.25,11.90625c.0747.12411.14404.25042.21875.375 .20755.34606.42069.68897.625,1.03125 .32369.53986.64852,1.08374.96875,1.625 .50406.85502.97447,1.73191 1.46875,2.59375 .61063,1.0647 1.24294,2.11586 1.84375,3.1875 1.79719,3.20553 3.52798,6.44033 5.21875,9.71875 .0879.17043.19364.32938.28125.5 .33005.6316.64517,1.27104.96875,1.90625 .0897.1629.16583.33404.25.5 .0437.0928.0793.18948.125.28125 .0469.0977.11.18948.15625.28125 .67227,1.34264 1.34492,2.67724 2,4.03125 .0246.0503.038.10589.0625.15625 .0697.14728.1478.29011.21875.4375 .0264.0545.0673.1018.0937.15625l.3125.65625c.0347.0713.0591.14747.0937.21875 .004.008-.004.0228 0,.0312 .27933.574.57142,1.14208.84375,1.71875l.5,1.0625c.0376.0804.0568.16927.0937.25 .0242.0507.0388.10528.0625.15625 .19366.41871.40081.83149.59375,1.25 .0376.0816.0563.1682.0937.25 .16077.35754.33832.70876.5,1.0625 .0579.12698.1298.24796.1875.375 .27218.58964.51871,1.18821.78125,1.78125 .006.0127.0256.0186.0312.0312l.125.28125 .15625.34375 20.8125-13.09375c-.27783-.6126-.53038-1.2338-.8125-1.84375-.63716-1.36922-1.28518-2.72968-1.9375-4.09375-.0379-.0794-.0554-.17073-.0937-.25l-.34375-.71875c-.28669-.59533-.58495-1.15686-.875-1.75-.36215-.73698-.72605-1.48321-1.09375-2.21875l-.5-1c-.57149-1.13988-1.16381-2.27205-1.75-3.40625-.004-.008.004-.023 0-.0312-.262-.50668-.51992-.9967-.78125-1.5-.0509-.0972-.10601-.18381-.15625-.28125-.0583-.11099-.10394-.22915-.15625-.34375l-.0625-.125c-.0142-.0273-.0483-.0352-.0625-.0625l-.28125-.53125c-.16959-.32037-.33034-.64762-.5-.96875-.23862-.44696-.47796-.89712-.71875-1.34375-.16714-.31027-.33192-.62774-.5-.9375-.10176-.18753-.2117-.3743-.3125-.5625-.55876-1.02505-1.11944-2.06845-1.6875-3.09375l-.40625-.71875c-.0762-.13556-.14145-.27403-.21875-.40625l-.0312-.0312c-.0305-.0524-.0636-.10276-.0937-.15625-.14851-.26344-.31922-.51743-.46875-.78125-.22866-.40359-.45339-.81677-.6875-1.21875-.0347-.0606-.0629-.12476-.0937-.1875l-.0312-.0625c-.26736-.4707-.54261-.93805-.8125-1.40625l-.0312-.0625-.40625-.6875c-.0918-.15743-.18907-.3116-.28125-.46875-.28342-.48753-.5556-.98184-.84375-1.46875-.10706-.18057-.23492-.35059-.34375-.53125-.0929-.15624-.1883-.31274-.28125-.46875-.1163-.19837-.23055-.39361-.34375-.59375-.0241-.0398-.0408-.0837-.0625-.125-.0434-.0718-.0818-.14701-.125-.21875l-.0312-.0312c-.0751-.12385-.14371-.25105-.21875-.375zm-607.37506,18.1875c-.017.0331-.045.0607-.062.0937-.1297.24926-.2457.50067-.375.75-.2256.4354-.4637.87621-.6875,1.3125l-.062.125-.031.0312-.062.125c-.1423.2787-.2677.56448-.4063.84375-.1716.34596-.3561.68547-.5312,1.03125l-.875,1.75-.25.5c-.2027.39742-.3974.78782-.5938,1.1875-.2165.44116-.4405.87388-.6562,1.3125-.096.19645-.1864.39793-.2813.59375-.026.0544-.067.10184-.094.15625v.0312l-.031.0625c-.088.19515-.1586.40273-.25.59375-.109.22702-.2352.46012-.3437.6875l-.031.0625c-.1486.3139-.2899.62494-.4375.9375-.1846.38702-.3796.76888-.5625,1.15625l-.031.0625c-.02.0422-.043.0828-.062.125-.1862.39752-.3769.7866-.5625,1.1875-.1391.30023-.2682.60566-.4063.90625-.121.26154-.2548.51955-.375.78125-.077.16494-.1431.33392-.2187.5-.045.10068-.079.21204-.125.3125-.1986.43713-.3979.87473-.5938,1.3125-.4239.94555-.8348,1.89506-1.25,2.84375-.2502.5731-.501,1.14277-.75,1.71875-.135.31227-.2722.62485-.4062.9375-.1287.2999-.2785.60575-.4063.90625-.057.13362-.1.27258-.1562.40625-.751,1.77477-1.4966,3.55875-2.2188,5.34375-.7267,1.79862-1.4287,3.60036-2.125,5.40625l22.4375,9.46875 .1563-.40625c.1457-.37628.2927-.75361.4375-1.125 .2274-.58692.4567-1.19621.6875-1.78125 .1581-.39927.3394-.7894.5-1.1875v-.0312c.056-.13952.1-.26687.1562-.40625 .3412-.84717.7143-1.71869 1.0625-2.5625 .061-.14647.1265-.29114.1875-.4375l.5313-1.28125c.013-.0303.019-.0634.031-.0937s.048-.0903.062-.125v-.0312c.2124-.50385.44-.99751.6563-1.5 .076-.17709.142-.35281.2187-.53125l.3438-.78125c.2598-.59451.5174-1.1882.7812-1.78125 .1-.22724.1813-.42935.2813-.65625 .4006-.89563.8122-1.79421 1.2187-2.6875 .033-.0725.061-.14627.094-.21875 .2014-.446.3898-.89906.5937-1.34375 .091-.19947.1895-.39494.2813-.59375 .081-.17403.1378-.35735.2187-.53125 .01-.0129.025-.0186.031-.0312l.2187-.46875c.218-.46859.4309-.94048.6563-1.40625l.094-.1875c.098-.21078.2143-.41439.3125-.625 .044-.0927.083-.18775.125-.28125 .024-.0509.038-.1054.062-.15625 .099-.2212.208-.43816.3125-.65625 .4651-.97062.9319-1.94073 1.4063-2.90625 .052-.10533.1041-.20719.1562-.3125 .01-.0124.025-.0189.031-.0312 .01-.0176 0-.0432 0-.0625 .01-.0124.026-.0187.031-.0312 .078-.15897.1667-.31246.25-.46875l.1563-.3125c.111-.22596.2038-.46037.3125-.6875 .211-.44144.4367-.87605.6562-1.3125 .08-.15798.17-.31076.25-.46875 .177-.34827.3529-.68343.5313-1.03125 .1862-.36533.3793-.72711.5625-1.09375 .067-.13332.1189-.27404.1875-.40625 .1027-.19904.2093-.39499.3125-.59375 .1422-.27287.293-.54091.4375-.8125 .029-.0554.066-.10045.094-.15625 .015-.0282.017-.0649.031-.0937l.062-.125 .062-.125c.06-.11954.1248-.22596.1875-.34375 .028-.0528.066-.10307.094-.15625 .1787-.33246.3536-.66711.5313-1 .068-.12788.1501-.2476.2187-.375 .059-.10989.098-.2339.1563-.34375l-23.1563-8.40625zm629.84381,26.09375-22.6875,8.75c.66524,1.56365 1.30554,3.13673 1.9375,4.71875 .0457.11268.0794.2311.125.34375 .11056.27268.23392.53946.34375.8125 .2418.6025.48076,1.20891.71875,1.8125s.45613,1.20974.6875,1.8125c.12745.33203.24357.66896.375,1 .0464.11691.11118.22609.15625.34375 .0153.0397.0161.0852.0312.125 .97328,2.54836 1.93803,5.0895 2.84375,7.65625 .0815.23056.16896.4567.25.6875 .1202.34311.22625.68836.34375,1.03125 .0673.19637.12037.39748.1875.59375 .36344,1.06249.73849,2.11944 1.09375,3.1875 .10296.31267.20883.62467.3125.9375l.0937.28125c.0748.22646.14498.45783.21875.6875 .0404.12583.0845.25086.125.375 .2464.7686.47821,1.54188.71875,2.3125 .0753.23848.14461.47956.21875.71875 .0265.0849.0672.16513.0937.25 .28363.90499.56668,1.81067.84375,2.71875 .0499.1643.0812.33387.125.5 .0131.0435.0178.0844.0312.125 .0255.0953.0656.18673.0937.28125s.0649.18681.0937.28125c.006.019-.006.0435 0,.0625 .006.043.0194.0853.0312.125 .15147.49084.32384.97517.46875,1.46875 .22033.74416.4748,1.47837.6875,2.21875 .058.19208.10125.40036.15625.59375l22.4375-10.03125c-.22823-.77885-.45204-1.56365-.6875-2.34375-.0681-.22523-.15022-.43116-.21875-.65625-.0318-.10375-.0631-.20872-.0937-.3125-.0857-.28085-.16365-.56327-.25-.84375-.14771-.47817-.28709-.95966-.4375-1.4375-.005-.0143-.0266-.0171-.0312-.0312-.01-.0313-.0217-.0625-.0312-.0937s-.0221-.0623-.0312-.0937c-.23608-.74806-.44694-1.5038-.6875-2.25-.0694-.21283-.14535-.41302-.21875-.625-.007-.0216-.0243-.0408-.0312-.0625-.003-.009.003-.0217 0-.0312-.27882-.86656-.55886-1.76452-.84375-2.625-.29292-.88041-.57504-1.74695-.875-2.625-.51514-1.51649-1.05959-3.02619-1.59375-4.53125-.49974-1.39634-1.0124-2.79351-1.53125-4.1875-.214-.58563-.43616-1.16692-.65625-1.75-.15025-.39713-.28569-.82182-.4375-1.21875-.10465-.27443-.23812-.53881-.34375-.8125-.60886-1.58071-1.24542-3.14481-1.875-4.71875-.15327-.38318-.28173-.77238-.4375-1.15625-.0406-.10096-.0528-.21162-.0937-.3125-.15415-.37928-.3447-.74591-.5-1.125-.40327-.98414-.80872-1.95794-1.21875-2.9375h-.0312zm-649.65631,19.46875c-.037.10623-.088.20621-.125.3125-.5802,1.63974-1.1346,3.28807-1.6875,4.9375-.015.0437-.048.0812-.062.125-.08.23834-.1385.47657-.2187.71875-.7281,2.1987-1.4367,4.40325-2.125,6.625-.017.0534-.046.10282-.062.15625-.014.0405-.019.084-.031.125l-.125.40625c-.646,2.09179-1.2706,4.18206-1.875,6.28125l-.2812.96875c-.5748,2.02025-1.1192,4.04109-1.6563,6.0625-.3052,1.14984-.6074,2.30913-.9062,3.46875-.1298.50843-.2476,1.02267-.375,1.53125-.1535.60527-.3213,1.20846-.4688,1.8125-.025.10269-.038.20985-.062.3125-.028.11482-.066.22892-.094.34375v.0312c-.025.10559-.068.20699-.094.3125l-.2812,1.1875c0,.0197.01.0428 0,.0625-.01.0318-.024.062-.031.0937-.022.0934-.038.18847-.062.28125l-.3125,1.34375 23.5625,6.21875c.022-.0947.067-.18568.094-.28125 .01-.032-.01-.0617 0-.0937s.023-.0615.031-.0937 .024-.0617.031-.0937c.192-.83654.3978-1.66744.5937-2.5 .018-.0773.044-.17263.062-.25 .015-.0631.017-.12456.031-.1875 .2762-1.16603.5463-2.33278.8437-3.5 .076-.29923.1734-.60711.25-.90625 .081-.3153.1701-.62531.25-.9375 .085-.32789.1675-.6679.25-1 .2577-.98068.5435-1.9584.8125-2.9375 .3833-1.39497.7828-2.79509 1.1875-4.1875 .2686-.93832.5357-1.87768.8125-2.8125 .012-.0413.019-.0838.031-.125 .078-.2638.1402-.51775.2187-.78125 .074-.24261.1444-.50744.2188-.75 .058-.19395.1288-.36883.1875-.5625 .4124-1.36205.8509-2.70709 1.2812-4.0625 .1947-.61335.3636-1.23253.5625-1.84375 .2412-.74106.504-1.48445.75-2.21875 .027-.0806.036-.1687.062-.25 .1546-.46935.3151-.93352.4688-1.40625l.5312-1.5625 .031-.0937c.035-.10113.09-.18015.125-.28125s.088-.20831.125-.3125c.021-.0623.041-.12524.062-.1875 .1172-.33819.2309-.69145.3437-1.03125 .044-.12409.08-.25098.125-.375 .018-.0513.017-.10566.031-.15625 .023-.0623.039-.12613.062-.1875s.04-.12351.062-.1875c.01-.0219.017-.0435.031-.0625s.023-.0406.031-.0625c.01-.0127.027-.0187.031-.0312l.062-.15625 .094-.25c.01-.0219.024-.0406.031-.0625s-.01-.0434 0-.0625c.044-.1239.082-.25084.125-.375 .038-.13642.082-.27163.125-.40625 .033-.0925.061-.18872.094-.28125 .086-.26461.1541-.51755.25-.78125l-24.0313-5.03125zm665.53131,27.03125-23.71875,5.46875 .1875.6875c.0952.36054.15769.73092.25,1.09375 .22017.86532.43988,1.73011.65625,2.59375 .0464.18582.0781.37619.125.5625 .0896.35547.19454.70728.28125,1.0625 .0746.30188.14495.60398.21875.90625 .2088.85518.42604,1.70648.625,2.5625 .036.15498.0627.31235.0937.46875 .0187.0943.0406.18784.0625.28125l.0312.15625c.26874,1.13537.56407,2.26536.8125,3.40625 .0556.25231.10126.49764.15625.75 .17156.78738.31316,1.5828.46875,2.375 .0185.0943.044.18702.0625.28125 .0314.12494.0673.2488.0937.375 .004.02-.004.0425 0,.0625s-.004.0425 0,.0625c.0101.062.019.12568.0312.1875 .008.041.0208.0848.0312.125 .006.032.0248.0618.0312.0937 .005.0217.0267.0405.0312.0625 .12242.59333.22456,1.1867.34375,1.78125l.0625.3125c.0427.22896.0812.45869.125.6875 .008.0418.0231.0832.0312.125 .0455.24381.0783.47867.125.71875 .005.0228.0272.0711.0312.0937 .0116.0623.0196.12529.0312.1875 .10687.56326.20739,1.12415.3125,1.6875 .14673.77107.3,1.54162.4375,2.3125 .0577.32319.1304.64572.1875.96875 .005.0304-.005.0634 0,.0937 .0423.22892.0848.48916.125.71875 .008.046.0231.0479.0312.0937 .0733.45842.1392.91813.21875,1.375 .0202.11531.0425.22842.0625.34375 .009.0522.0225.10429.0312.15625 .0121.0727.0191.14616.0312.21875 .0192.14274.0375.29363.0625.4375 .0102.0834.0174.16717.0312.25 .0368.21965.0876.43666.125.65625 .0319.18749.0617.37504.0937.5625 .0229.17682.0326.35554.0625.53125 .0906.53192.19615,1.06189.28125,1.59375 .17498,1.0935.37423,2.18682.53125,3.28125 .004.0227-.003.0397 0,.0625l23.53125-6.90625 .0625-.0312c-.0868-.56213-.16061-1.12617-.25-1.6875-.0721-.45684-.17615-.91886-.25-1.375-.007-.0419.001-.0818 0-.125-.005-.0304.005-.0634 0-.0937-.002-.009-.03-.0223-.0312-.0312-.0149-.0697-.0198-.11734-.0312-.1875-.16629-1.01648-.32399-2.01999-.5-3.03125-.0506-.29223-.10494-.583-.15625-.875-.0116-.0659-.0508-.15297-.0625-.21875-.0697-.39639-.15058-.76015-.21875-1.15625-.10313-.56776-.18887-1.15053-.28125-1.71875-.0634-.34298-.12315-.68859-.1875-1.03125-.10348-.55101-.20647-1.10606-.3125-1.65625-.006-.0316-.0253-.0625-.0312-.0937-.002-.0104.002-.0208 0-.0312-.21788-1.1284-.45939-2.25027-.6875-3.375-.0378-.18613-.0556-.37644-.0937-.5625l-.1875-.875c-.0263-.12655-.0668-.2489-.0937-.375-.058-.28142-.12946-.56211-.1875-.84375-.0273-.12345-.0418-.24988-.0625-.375-.0115-.0518-.0198-.10447-.0312-.15625-.007-.0319-.0242-.0618-.0312-.0937-.0129-.0613-.0189-.12508-.0312-.1875l-.0625-.28125c-.0298-.13579-.0643-.27005-.0937-.40625-.0226-.10367-.0402-.20878-.0625-.3125-.10436-.48186-.20092-.95758-.3125-1.4375-.0372-.16781-.0859-.33277-.125-.5-.0558-.23868-.10238-.47952-.15625-.71875-.30818-1.3568-.61244-2.73729-.9375-4.09375-.0446-.18672-.11131-.34462-.15625-.53125l-.0312-.125c-.28526-1.20877-.57279-2.41657-.875-3.625-.0954-.38387-.18429-.77227-.28125-1.15625-.16552-.61871-.33664-1.25132-.5-1.875l-.1875-.71875zm-678.56251,20.3125c-.1607.7923-.3167,1.58514-.4688,2.375-.3141,1.63172-.6144,3.2342-.9062,4.875-.2384,1.33989-.4923,2.68446-.7188,4.03125-.051.30246-.1069.60373-.1562.90625-.012.0727-.019.14604-.031.21875-.029.14594-.07.28939-.094.4375v.0625c-.037.23538-.056.48379-.094.71875-.048.31298-.1108.62409-.1562.9375-.1255.86436-.2465,1.72897-.375,2.59375-.3698,2.48728-.7125,4.99744-1.0313,7.5s-.6102,5.00774-.875,7.53125c-.057.54219-.1022,1.08255-.1562,1.625-.083.83483-.1711,1.66702-.25,2.5l24.1875,3.03125 .031-.71875c.055-.59529.1261-1.18738.1875-1.78125 .0006-.0104-.001-.0208 0-.0312v-.0937c.01-.0846.016-.16784.031-.25 .2161-2.05206.4602-4.10014.7187-6.15625 .1599-1.27104.2995-2.54134.4688-3.8125 .013-.10219.018-.21029.031-.3125 .086-.64525.1909-1.28816.2813-1.9375 .014-.10412.018-.20856.031-.3125 .052-.38539.1057-.76956.1563-1.15625 .033-.23289.06-.48601.094-.71875 .144-1.00414.312-1.99841.4688-3 .025-.16248.037-.33757.062-.5 .01-.0656.021-.12603.031-.1875 .021-.12293.042-.24379.062-.375 .02-.1236.043-.25148.062-.375 .1984-1.23886.4124-2.51533.625-3.75 .072-.42862.1217-.85587.1875-1.28125 .019-.10563.04-.20688.062-.3125v-.0625c.017-.10502.044-.20692.062-.3125 .048-.27161.1069-.54127.1563-.8125 .024-.13467.038-.27165.062-.40625 .01-.0635.024-.12578.031-.1875 .073-.39547.1402-.79283.2188-1.1875 .014-.0742.048-.1446.062-.21875 .02-.10431.043-.20819.062-.3125 .1246-.66259.2462-1.30731.375-1.96875v-.0625c.1523-.78189.3151-1.56231.4687-2.34375 .011-.055.02-.13266.031-.1875 .034-.1676.059-.33111.094-.5 .036-.17835.086-.35362.125-.53125 .023-.11418.039-.22958.062-.34375 .036-.17342.058-.35792.094-.53125 .013-.0621.018-.1254.031-.1875 .01-.032.025-.0617.031-.0937 .029-.1389.065-.26736.094-.40625l-24.5312-1.625zm687.40626,25.625-24.21875,2.25c.0141.11135.0173.23241.0312.34375 .004.0438.0257.0814.0312.125 .17813,1.42684.31414,2.85467.46875,4.28125 .087.80245.19803,1.60344.28125,2.40625 .0159.15388.0468.28361.0625.4375s.0159.31513.0312.46875c.046.45626.081.91873.125,1.375 .0209.20996.0432.41417.0625.625 .21445,2.26991.42773,4.54307.59375,6.8125 .10935,1.49467.19632,2.97998.28125,4.46875 .001.0207-.001.0418 0,.0625 .029.51013.066,1.01938.0937,1.53125 .0138.26129.0181.51982.0312.78125 .007.13516.024.27086.0312.40625 .0698,1.31035.13733,2.63009.1875,3.9375 .018.47074.0228.93841.0312,1.40625 .0109.3064.0222.63028.0312.9375 .002.073-.003.14563 0,.21875 .002.0622-.003.12517 0,.1875 .0181.43721.0513.87581.0625,1.3125 .0374,1.35582.0734,2.70915.0937,4.0625 .0106.80559.0267,1.60104.0312,2.40625 .004.52335-.001,1.07181 0,1.59375 7e-005,.0232 0,.0392 0,.0625l24.3125-3.53125h.0312c-.002-.23904.002-.47898 0-.71875-.00077-.0536.002-.10258 0-.15625-.004-.14013-.0291-.26643-.0312-.40625-.00078-.0511.00013-.10437 0-.15625-.00089-.0604.001-.1271 0-.1875-.002-.093.002-.18781 0-.28125-.002-.12548.003-.24917 0-.375-.0242-1.33213-.0534-2.63108-.0937-3.96875-.008-.26798-.0232-.54414-.0312-.8125-.0125-.38748-.0175-.76883-.0312-1.15625-.0768-2.1519-.19613-4.31871-.3125-6.46875-.0475-.87711-.10399-1.75076-.15625-2.625-.0174-.28121-.0442-.56286-.0625-.84375-.0724-1.16548-.13223-2.33174-.21875-3.5-.0731-.98648-.16703-1.97733-.25-2.96875-.0113-.13559-.0197-.27066-.0312-.40625s-.0197-.27056-.0312-.40625c-.0925-1.07511-.18085-2.15057-.28125-3.21875-.12828-1.36488-.29477-2.72819-.4375-4.09375-.10014-.95813-.17234-1.91913-.28125-2.875-.0127-.11142-.0186-.20109-.0312-.3125-.005-.0807.007-.17022 0-.25-.001-.0103.001-.0212 0-.0312-.002-.0202.003-.0422 0-.0625-.0227-.16781-.0743-.33345-.0937-.5-.0284-.24159-.0645-.47749-.0937-.71875-.0593-.48795-.12548-.98153-.1875-1.46875h-.0312zm-669.00006,19.0625-24.5312,1.71875c-.024.36438-.04.72931-.062,1.09375-.01.15629-.022.31245-.031.46875v.1875c-.1548,2.64747-.2802,5.2872-.375,7.9375-.1825,5.10324-.2593,10.23611-.2187,15.34375 0,.62561.023,1.24939.031,1.875 .031,2.3183.079,4.61969.1563,6.9375 .057,1.72641.1351,3.45805.2187,5.1875l24.3438-.40625c-.098-1.90666-.194-3.84036-.25-5.75-.025-.7405-.012-1.47876-.031-2.21875-.01-.48227-.023-.95502-.031-1.4375-.016-.72202-.024-1.43365-.031-2.15625v-.75c-.012-1.19855-.029-2.40177-.031-3.59375-.0004-.14562 0-.29182 0-.4375 0-.16677-.0002-.33459 0-.5 .0002-.23272-.0007-.48612 0-.71875 .001-.37449.029-.7191.031-1.09375 0-.66493-.01-1.33535 0-2 0-.39617.025-.7919.031-1.1875-.0007-.0438.0009-.0812 0-.125v-.59375-.1875c0-.17758.026-.35384.031-.53125 .01-.50058.018-1.00043.031-1.5v-.15625c.01-.2832.023-.56156.031-.84375 0-.17795-.01-.35306 0-.53125 .015-.40669.049-.81303.062-1.21875v-.3125c.011-.30286.02-.60348.031-.90625v-.21875c.01-.15638.025-.31219.031-.46875 .041-1.03208.076-2.06458.125-3.09375 .035-.71557.084-1.44207.125-2.15625 .01-.17031.023-.32948.031-.5v-.0625c.01-.10511.024-.20755.031-.3125 .034-.56341.057-1.12562.094-1.6875v-.15625c.027-.42775.033-.85376.062-1.28125 .023-.54483.053-1.1102.094-1.65625zm647.31256,28.8125c-.002.23277.004.45446 0,.6875-.00074.0467.00097.0784 0,.125-.0106.62937-.0483,1.27752-.0625,1.90625-.012.50762-.0168,1.02348-.0312,1.53125-.0386,1.35532-.098,2.70765-.15625,4.0625-.00082.0208.00091.0416 0,.0625-.00045.0104.00045.0208 0,.0312-.0108.25019-.0202.49952-.0312.75-.007.15332.007.31547 0,.46875-.008.16724-.0234.33275-.0312.5-.0646,1.37255-.16411,2.74894-.25,4.125-.003.0728.004.14564 0,.21875-.006.0941-.0253.18717-.0312.28125-.0371.58344-.0546,1.1674-.0937,1.75-.0851,1.29697-.17783,2.60832-.28125,3.90625-.003.0322.003.0614 0,.0937-.0327.40838-.088.81183-.125,1.21875-.0504.60958-.10234,1.23402-.15625,1.84375-.0224.2391-.041.47961-.0625.71875-.0312.33433-.0921.66622-.125,1-.005.0515.005.10466 0,.15625-.094.94664-.18287,1.89291-.28125,2.84375-.025.24205-.0681.47819-.0937.71875-.0378.36391-.0537.7296-.0937,1.09375-.003.023.003.0395 0,.0625-.0856.77585-.19209,1.55973-.28125,2.34375-.0474.41721-.0748.83708-.125,1.25-.0162.13454-.0149.27173-.0312.40625-.14819,1.223-.33283,2.43808-.5,3.65625-.004.0305.004.0633 0,.0937-.0573.42727-.0975.82314-.15625,1.25-.0395.28134-.0852.56247-.125.84375-.007.0523-.0239.10398-.0312.15625l-.0312.21875c-.0123.0829-.0197.16773-.0312.25-.0272.23984-.0591.47799-.0937.71875h24.59375c.003-.0218.028-.0407.0312-.0625 .051-.38371.0998-.7705.15625-1.15625 .005-.0411.0214-.0825.0312-.125 .009-.0628.0222-.1247.0312-.1875 .004-.0308-.004-.063 0-.0937 .0286-.21849.0696-.43639.0937-.65625 .0251-.22896.0335-.45987.0625-.6875 .12803-1.03166.25645-2.06119.375-3.09375 .0144-.15556.0134-.31352.0312-.46875 .17407-1.51251.34439-3.01617.5-4.53125 .018-.17632.0434-.35454.0625-.53125 .062-.62656.12776-1.24981.1875-1.875 .10897-1.1497.21509-2.2887.3125-3.4375 .003-.0312-.003-.0627 0-.0937 .20194-2.44062.38166-4.90567.53125-7.34375 .009-.13503.0228-.2712.0312-.40625s.0226-.27054.0312-.40625c.001-.0208-.001-.0417 0-.0625 .0332-.56492.0639-1.12478.0937-1.6875 .0977-1.84355.17901-3.68233.25-5.53125 .0827-2.15394.14068-4.31484.1875-6.46875 .008-.25022.0266-.50041.0312-.75 .003-.16661-.003-.33335 0-.5l-24.3125-1.1875zm-647.43756,16.875-24.0625,5.125c.0008.0104-.0008.0209 0,.0312s-.0007.022 0,.0312v.125c.039.48923.084.97932.125,1.46875 .01.0667.026.15211.031.21875 .07.84618.145,1.68759.2187,2.53125 .053.58281.1003,1.16822.1563,1.75 .02.20836.042.41671.062.625 .034.35289.058.71022.094,1.0625 .032.31289.061.62485.094.9375 .1234,1.18995.2704,2.37587.4062,3.5625 .044.3867.1109.77039.1563,1.15625 .137,1.16532.2569,2.33272.4062,3.5 .031.24012.062.47817.094.71875 .2398,1.83958.4812,3.668.75,5.5 .685,4.66959 1.477,9.31414 2.3437,13.9375 .08.42548.1375.85615.2188,1.28125h.031l24.0313-3.8125c-.046-.22818-.1122-.45864-.1563-.6875-.01-.0458-.022-.0793-.031-.125-.1186-.61821-.229-1.25668-.3438-1.875-.046-.24755-.053-.50152-.094-.75s-.111-.4979-.1563-.75c-.2383-1.31584-.4393-2.65034-.6562-3.96875v-.0625c-.016-.0947-.047-.18659-.062-.28125 0-.0227-.028-.0396-.031-.0625-.027-.16082-.067-.30794-.094-.46875-.024-.15154-.038-.31722-.062-.46875-.027-.16527-.036-.33468-.062-.5-.1167-.7266-.206-1.4579-.3125-2.1875-.01-.0423-.024-.0827-.031-.125-.072-.46917-.1483-.93665-.2187-1.40625-.011-.0745-.02-.14425-.031-.21875l-.031-.1875c-.067-.42771-.1576-.85545-.2188-1.28125-.01-.0649.01-.12238 0-.1875v-.0937c-.041-.20854-.096-.41472-.125-.625-.01-.0409.01-.0841 0-.125-.1018-.72023-.2171-1.43337-.3125-2.15625-.07-.52816-.1202-1.06582-.1875-1.59375-.01-.0322-.027-.0616-.031-.0937-.01-.0598-.024-.0964-.031-.15625-.01-.0516.01-.10467 0-.15625-.068-.5405-.152-1.11531-.2187-1.65625-.069-.60341-.1484-1.1794-.2188-1.78125-.077-.60467-.1521-1.20675-.2187-1.8125-.041-.37597-.057-.77614-.094-1.15625-.01-.0516.0009-.10424 0-.15625v-.0312c-.028-.26178-.065-.52042-.094-.78125-.028-.26604-.067-.54635-.094-.8125v-.125c-.01-.0831-.018-.16709-.031-.25-.022-.13528-.049-.26956-.062-.40625-.01-.0737 0-.14623 0-.21875-.01-.0516.01-.10466 0-.15625-.027-.27059-.061-.54131-.094-.8125-.077-.63621-.1614-1.27343-.2187-1.90625-.02-.2256-.02-.45901-.031-.6875v-.125-.0625c-.059-.68792-.1328-1.37379-.1875-2.0625-.012-.13537-.02-.26918-.031-.40625-.018-.2233-.045-.43301-.062-.65625-.023-.30375-.042-.63363-.062-.9375-.054-.72183-.107-1.43365-.1563-2.15625zm643.31256,29.78125-.0937.71875c-.48714,2.98408-1.01656,5.9615-1.59375,8.9375-.0546.28163-.1303.56178-.1875.84375-.187.95472-.39756,1.89702-.59375,2.84375-.0989.47734-.18052.95794-.28125,1.4375l-.0312.15625c-.0476.22778-.0769.45989-.125.6875-.0776.3664-.17114.7275-.25,1.09375-.039.18799-.0838.37464-.125.5625-.10224.46582-.20954.94087-.3125,1.40625-.0171.0777-.0142.1411-.0312.21875-.10616.47773-.20364.96054-.3125,1.4375-.0284.12578-.065.2492-.0937.375-.10607.46845-.20614.94793-.3125,1.40625-.13979.59701-.29632,1.16701-.4375,1.75-.0475.19603-.0765.39312-.125.59375-.0939.38978-.18561.79891-.28125,1.1875-.10757.43693-.23486.87255-.34375,1.3125-.19101.77176-.36525,1.54886-.5625,2.3125-.0729.28438-.17706.55939-.25.84375-.0605.2297-.12721.45764-.1875.6875-.0872.33251-.1645.66724-.25,1-.0392.14644-.0855.28954-.125.4375-.0219.083-.0402.16713-.0625.25-.008.0317-.023.062-.0312.0937l-.125.46875c-.2079.8239-.3976,1.65686-.625,2.46875-.0601.21578-.15836.40937-.21875.625-.1844.65815-.37369,1.31086-.5625,1.96875-.16766.58264-.32858,1.16788-.5,1.75l24.34375,3.5c.0175-.0622.0423-.12477.0625-.1875 .003-.01-.003-.0215 0-.0312 .63601-2.25115 1.25227-4.50005 1.84375-6.75l.375-1.4375c.26516-1.0369.5314-2.05869.78125-3.09375 .0551-.22194.10096-.4363.15625-.65625 .005-.022.026-.0405.0312-.0625 .2944-1.23209.55715-2.48171.84375-3.71875 1.31279-5.66579 2.50115-11.36548 3.53125-17.0625 .006-.0322.0254-.0616.0312-.0937 .33649-1.86466.6317-3.72688.9375-5.59375l-23.90625-4.6875zm-637.09376,15.21875-23.0938,8.4375c.03.13567.064.27036.094.40625 .1041.46779.2064.9389.3125,1.40625 .1158.51194.2257,1.02041.3437,1.53125 .2393,1.03282.5013,2.06314.75,3.09375 .4139,1.71535.8415,3.416 1.2813,5.125 .3837,1.49145.784,2.98236 1.1875,4.46875 .1608.59253.3048,1.18954.4687,1.78125 .1557.56152.3112,1.12716.4688,1.6875 .2151.76177.4359,1.52089.6562,2.28125 .086.30321.1619.60394.25.90625 .4075,1.39251.8252,2.76867 1.25,4.15625 .5168,1.68808 1.0515,3.382 1.5938,5.0625 .5425,1.6639 1.0853,3.31667 1.6562,4.96875 .01.0218.024.0407.031.0625 .076.2211.1711.43587.25.65625l23.25-7.15625c-.036-.10605-.057-.20639-.094-.3125v-.0312l-.031-.0937c-.3233-.93775-.6544-1.87241-.9688-2.8125-.3046-.91678-.5803-1.83538-.875-2.75-.09-.27338-.1936-.53843-.2812-.8125l-.094-.28125c-.017-.0535-.045-.10277-.062-.15625v-.0312c-.046-.14708-.1097-.2903-.1562-.4375-.069-.21858-.1282-.43747-.1875-.65625-.069-.21634-.1186-.44001-.1875-.65625-.2027-.63582-.4284-1.26507-.625-1.90625-.2104-.69052-.4194-1.37088-.625-2.0625-.3161-1.05525-.6074-2.12195-.9063-3.1875-.072-.25139-.1506-.49817-.2187-.75-.035-.12382-.061-.2505-.094-.375-.084-.30181-.1661-.60537-.25-.90625l-.094-.3125c-.018-.0632-.045-.12417-.062-.1875-.075-.26965-.1393-.54322-.2188-.8125-.04-.14593-.086-.29098-.125-.4375-.058-.19933-.1333-.39398-.1875-.59375-.022-.0815-.01-.16866-.031-.25-.01-.0195.01-.043 0-.0625-.1116-.38503-.2395-.76475-.3438-1.15625-.037-.14081-.058-.2966-.094-.4375l-.094-.34375c-.017-.0637-.046-.12386-.062-.1875-.2057-.77909-.3938-1.56235-.5937-2.34375-.1418-.55218-.2992-1.10189-.4375-1.65625-.027-.10617-.041-.20913-.062-.3125l-.031-.125c-.042-.167-.084-.33289-.125-.5l-.062-.25c-.093-.37618-.1913-.74865-.2812-1.125-.015-.0618-.016-.12575-.031-.1875-.047-.1904-.1055-.37296-.1562-.5625-.078-.29284-.1491-.5801-.2188-.875-.1902-.79866-.3551-1.60378-.5312-2.40625-.029-.12717-.065-.24777-.094-.375-.016-.0706-.015-.14777-.031-.21875-.046-.2095-.1093-.41595-.1563-.625-.026-.11555-.068-.22827-.094-.34375-.1754-.78635-.362-1.55654-.5313-2.34375-.023-.10492-.04-.23887-.062-.34375-.086-.4061-.1641-.81294-.25-1.21875-.01-.0227-.026-.0396-.031-.0625zm626.50001,29.78125c-.0878.2824-.19263.56101-.28125.84375-.003.009.003.0221 0,.0312-.04.12619-.0849.24881-.125.375-.29181.92718-.57378,1.85797-.875,2.78125-.0922.27785-.18816.53491-.28125.8125-.027.0847-.0658.16557-.0937.25-.0139.0411-.0184.0861-.0312.125-.0396.13606-.0804.27214-.125.40625-.43861,1.31634-.88725,2.62459-1.34375,3.9375-.10169.29266-.21029.58274-.3125.875l-.0937.25c-.0994.28251-.21136.56074-.3125.84375-.14107.39477-.26602.79549-.40625,1.1875-.0758.21177-.17393.41378-.25.625-.0227.063-.0399.12459-.0625.1875-.0749.20768-.14354.41773-.21875.625-.0192.0528-.0438.10338-.0625.15625-.0338.0927-.0599.1886-.0937.28125-.0826.23962-.16212.48025-.25.71875-.14138.38302-.26333.77356-.40625,1.15625-.21884.58937-.43388,1.16169-.65625,1.75-.10714.28186-.23082.56084-.34375.84375-.0245.0613-.0381.12618-.0625.1875-.1163.29208-.23086.58465-.34375.875-.0154.0395-.0159.0855-.0312.125s-.0457.0816-.0625.125c-.008.0213-.023.0412-.0312.0625-.0151.0387-.0167.0549-.0312.0937-.006.0125-.0262.0182-.0312.0312-.0159.0398-.0167.0876-.0312.125-.0259.0641-.0681.12141-.0937.1875-.11729.30218-.22475.60376-.34375.90625-.0715.18848-.14513.37646-.21875.5625-.0604.15691-.12672.31198-.1875.46875-.14044.36228-.26162.73249-.40625,1.09375-.0142.0348-.0485.0587-.0625.0937l-.34375.875c-.0811.19994-.1674.39603-.25.59375-.0247.0609-.0384.12629-.0625.1875-.07.16748-.14938.33104-.21875.5-.0443.11357-.0789.23109-.125.34375-.0263.0646-.0672.12292-.0937.1875l-.0312.0625c-.13731.33328-.26931.66946-.40625,1l-.125.28125c-.0428.10123-.0799.20484-.125.3125-.13545.33273-.26618.66794-.40625,1-.036.0852-.0889.16456-.125.25-.004.009.004.0223 0,.0312-.049.11549-.10716.22833-.15625.34375-.0713.17809-.14909.35247-.21875.53125-.13439.34492-.26058.69392-.40625,1.03125-.0122.0284-.0503.0341-.0625.0625-.0442.10288-.0809.20996-.125.3125-.0239.0553-.0698.10096-.0937.15625-.0376.0706-.063.14748-.0937.21875-.0581.13472-.0979.27173-.15625.40625-.15421.35508-.31292.7084-.46875,1.0625-.0796.17882-.17092.35188-.25.53125s-.14197.35819-.21875.53125c-.27469.61844-.56766,1.22631-.84375,1.84375-.0687.15363-.1185.31477-.1875.46875-.0556.12809-.12978.2481-.1875.375-.027.0603-.0359.12901-.0625.1875l23.65625,6.875c.12873-.28928.24721-.58521.375-.875 .0378-.0851.0872-.16488.125-.25 .0262-.0598.0363-.12759.0625-.1875 .34976-.79995.71626-1.59847 1.0625-2.40625 .48292-1.12663.97011-2.25163 1.4375-3.375 .004-.009-.004-.0223 0-.0312 .0607-.14535.12313-.29214.1875-.4375 .009-.0215.0226-.041.0312-.0625 .0429-.10361.082-.20889.125-.3125 .032-.0776.0617-.14113.0937-.21875l.15625-.375 .71875-1.78125c.0592-.14642.12608-.29094.1875-.4375l.1875-.46875c.0427-.1064.0511-.20613.0937-.3125 1.06262-2.65295 2.10123-5.33228 3.09375-8 .20375-.54765.41474-1.08581.625-1.625l.0312-.0937c.15605-.426.31416-.85315.46875-1.28125 .003-.009-.003-.0221 0-.0312 .27078-.75348.54593-1.50007.8125-2.25l.34375-.96875c.002-.008-.003-.0229 0-.0312 .0145-.0287.0207-.0324.0312-.0625 .0245-.071.038-.14775.0625-.21875 .0974-.27848.21581-.56499.3125-.84375 .10812-.31157.20345-.62676.3125-.9375 .16628-.48484.33592-.98351.5-1.46875 .0183-.0545.0404-.10536.0625-.15625s.0458-.10283.0625-.15625c.048-.14292.0775-.29428.125-.4375 .33303-.99625.67291-1.99737 1-3 .0625-.19876.12524-.39493.1875-.59375 .29755-.95007.57733-1.89775.875-2.84375l-23-8.03125zm-613.93751,14.15625-21.7188,11.59375c.5095,1.33795 1.0441,2.66783 1.5625,4 .4171,1.07167.8537,2.1513 1.2813,3.21875 .4153,1.03463.824,2.06109 1.25,3.09375 .1284.31172.2457.62624.375.9375 .1233.31291.246.62617.375.9375 .018.0424.045.0827.062.125 .038.0909.056.19042.094.28125 .017.0434.044.082.062.125s.044.0821.062.125c.023.0512.041.10497.062.15625 .067.15769.1515.31079.2188.46875 .7173,1.68466 1.4465,3.38772 2.1875,5.0625 .2906.65794.5803,1.3126.875,1.96875l.375.84375c.032.0725.061.14667.094.21875 .052.11549.1034.22909.1563.34375 .4302.93391.8769,1.84484 1.3125,2.78125 .2209.47437.433.96369.6562,1.4375 .5409,1.14859 1.0722,2.29636 1.625,3.4375 .1827.37758.3779.74727.5625,1.125 .4883.99895 1.0049,1.97697 1.5,2.96875l22.0938-10.21875-.3438-.625c-.2946-.5879-.5867-1.18661-.875-1.78125-.094-.19112-.1875-.37101-.2812-.5625-.1719-.35539-.3283-.70858-.5-1.0625-.1899-.39334-.3749-.79371-.5625-1.1875-.069-.14301-.1193-.29434-.1875-.4375-.013-.0264-.05-.0673-.062-.0937-.297-.61953-.5823-1.25401-.875-1.875-.05-.10711-.107-.20662-.1563-.3125-.1268-.26757-.2811-.54335-.4062-.8125v-.0312c-.6207-1.33685-1.2723-2.65259-1.875-4l-.3125-.71875c-.2775-.61999-.5471-1.24724-.8125-1.875-.023-.051-.04-.10525-.062-.15625-.087-.19428-.1635-.39647-.25-.59375-.1311-.29606-.2772-.57778-.4063-.875v-.0312-.0312c-.2463-.56757-.5069-1.11788-.75-1.6875-.01-.0139.01-.0491 0-.0625-.013-.0346-.024-.0623-.031-.0937v-.0312c-.2299-.52007-.47-1.03619-.6875-1.5625-.033-.078-.061-.17178-.094-.25-.3762-.89678-.7575-1.78871-1.125-2.6875-.016-.0397-.015-.0854-.031-.125-.1279-.31694-.2822-.62139-.4063-.9375v-.0312c-.025-.0615-.04-.12587-.062-.1875-.05-.12591-.1056-.24854-.1562-.375-.016-.0407-.046-.0842-.062-.125-.316-.78613-.6048-1.58304-.9063-2.375-.084-.2157-.1978-.4402-.2812-.65625-.069-.17394-.12-.3561-.1875-.53125-.1748-.44313-.3584-.86891-.5313-1.3125-.1411-.37196-.2676-.751-.4062-1.125-.05-.13261-.1061-.2737-.1563-.40625l-.031-.0625c0-.01-.028-.0217-.031-.0312-.044-.11421-.081-.22967-.125-.34375-.3698-.96858-.7396-1.93218-1.0937-2.90625-.01-.0213.01-.0407 0-.0625zm597.28126,28.375-.3125.65625c-.19492.40812-.40046.81033-.59375,1.21875-.0877.1854-.15865.37749-.25.5625s-.18755.37098-.28125.5625l-.53125,1.0625c-.19407.39127-.39798.76642-.59375,1.15625-.0374.075-.0879.14365-.125.21875-.16301.32965-.30356.67052-.46875,1l-.125.25c-.20372.40812-.41741.8111-.625,1.21875-.0755.15495-.14022.31543-.21875.46875-.0586.11801-.12904.23003-.1875.34375-.005.009.004.0222 0,.0312-.3914.76236-.79025,1.52124-1.1875,2.28125-.05.0951-.1062.1862-.15625.28125-.11584.2076-.23244.41473-.34375.625-.13075.24702-.2441.50428-.375.75-.12092.22834-.22234.45952-.34375.6875-.0465.0873-.10924.16346-.15625.25-.2679.50298-.54197.99877-.8125,1.5-.0332.0614-.0604.12617-.0937.1875-.004.008.004.0231 0,.0312-.0245.0453-.0692.0797-.0937.125-.0132.019-.0202.0422-.0312.0625-.0593.10629-.12865.20527-.1875.3125-.0261.0492-.0361.1071-.0625.15625-.1213.24106-.2462.48317-.375.71875h-.0312c-.3856.71915-.75644,1.44662-1.15625,2.15625l-.5625,1c-.0741.13057-.17263.24643-.25.375-.14184.23572-.26496.48267-.40625.71875-.19294.3394-.36828.69273-.5625,1.03125-.3076.53616-.62386,1.0638-.9375,1.59375l-.125.21875-.28125.5-.0312.0312c-.0221.0379-.0404.0872-.0625.125-.17632.29187-.35766.5809-.53125.875l-.0937.15625c-.0427.0724-.0822.14639-.125.21875-.27078.45929-.53919.91764-.8125,1.375-.19739.3338-.39421.66831-.59375,1-.0387.0643-.0863.12321-.125.1875-.13161.23274-.27105.46114-.40625.6875-.29449.48297-.57983.95567-.875,1.4375-.13044.21526-.24236.44166-.375.65625-.25383.41242-.52725.80828-.78125,1.21875l-.0312.0312c-.20016.32179-.39238.64745-.59375.96875-.0246.0393-.0378.0857-.0625.125l-.0312.0625 22.46875,10c.76916-1.2528 1.52866-2.48894 2.28125-3.75 .0355-.0595.0583-.12782.0937-.1875 .55449-.93038 1.11084-1.87781 1.65625-2.8125l.6875-1.1875c2.18356-3.77559 4.31016-7.56751 6.34375-11.40625 .71894-1.35711 1.4251-2.72955 2.125-4.09375 .10991-.2142.20188-.44008.3125-.65625 .51766-1.01412 1.02418-2.01346 1.53125-3.03125 .33071-.66734.67131-1.32902 1-2l.125-.25c.47627-.973.93899-1.93447 1.40625-2.90625l-21.6566-11.1873zm-579.71876,11.4375-19.9063,14.40625c.1825.34059.3476.69145.5313,1.03125 1.0319,1.90178 2.0892,3.8052 3.1562,5.6875 .1276.22583.2472.46228.375.6875 .4421.7793.8967,1.53912 1.3438,2.3125 .2343.40401.4585.81274.6875,1.21875 .08.13722.1696.26911.25.40625 .1885.33252.3675.67039.5625,1 .09.14065.1636.29185.25.4375 .1739.28334.361.55887.5312.84375l.031.0312c.1907.32074.3708.64875.5625.96875 .3821.62669.7751,1.24662 1.1562,1.875 .3593.59071.6995,1.19429 1.0625,1.78125 .027.0441.066.081.094.125 .2771.45016.5645.89554.8437,1.34375 .6674,1.06748 1.3524,2.12707 2.0313,3.1875 .1906.28984.3742.58329.5625.875v.0312c.014.0289.045.0356.062.0625 .041.063.083.12504.125.1875 .16.24785.308.50254.4687.75 1.0615,1.63498 2.1301,3.2573 3.2188,4.875 .1404.20526.2653.42005.4062.625 .6704.99503 1.3534,1.98029 2.0313,2.96875l20.4687-13.25c-.194-.27839-.3707-.56577-.5625-.84375-.6032-.87451-1.2135-1.73946-1.8125-2.625-.1628-.24333-.338-.47485-.5-.71875-.071-.10428-.1172-.20787-.1875-.3125-.029-.043-.065-.082-.094-.125-.013-.0191-.018-.0434-.031-.0625-.1636-.24453-.3363-.47413-.5-.71875-.3598-.54035-.7062-1.08278-1.0625-1.625-.3464-.52635-.6664-1.06445-1-1.59375-.1098-.16961-.2343-.33068-.3437-.5-.1597-.24691-.308-.50246-.4688-.75-.08-.12434-.1703-.25078-.25-.375-.1973-.30857-.3979-.60131-.5937-.90625-.033-.0512-.061-.10502-.094-.15625-1.1779-1.85012-2.3334-3.7197-3.4687-5.59375v-.0312c-.1243-.20148-.2845-.39157-.4063-.59375-.1743-.28919-.3307-.58514-.5-.875-.2609-.4371-.5175-.87661-.7812-1.3125-.3239-.55342-.6675-1.10272-1-1.65625-.01-.01 0-.022 0-.0312l-.031-.0625c-.089-.14882-.1944-.28806-.2812-.4375-.3669-.62989-.7084-1.26971-1.0625-1.90625l-.125-.21875c-.078-.1368-.1712-.26842-.25-.40625-.1664-.30124-.334-.60459-.5-.90625-.2211-.38673-.4421-.77425-.6563-1.15625-.4518-.80589-.8975-1.628-1.3437-2.4375l-.1875-.34375-.2188-.40625c-.1575-.28762-.3063-.58496-.4687-.875-.2176-.38848-.449-.77001-.6563-1.15625-.3993-.74478-.7898-1.47106-1.1875-2.21875l-.2812-.53125zm558.46876,26.5625c-.28912.42889-.59119.84983-.875,1.28125-.26008.39537-.54803.76582-.8125,1.15625-.0259.0383-.0368.0865-.0625.125-.0912.13721-.18983.26915-.28125.40625l-.0312.0312c-.65315.98341-1.29876,1.95936-1.96875,2.9375-.0261.0382-.0677.0866-.0937.125-.0604.0902-.0948.19182-.15625.28125-.0749.1082-.1713.20534-.25.3125-.0135.0184-.0184.0439-.0312.0625l-.0312.0625c-.0379.0549-.0871.10152-.125.15625-.0655.0813-.12855.16456-.1875.25-.14972.21544-.28682.4396-.4375.65625l-.375.53125c-.20397.29244-.38886.58335-.59375.875-.33786.48165-.68903.95862-1.03125,1.4375-.0169.0236-.0457.0388-.0625.0625-.43959.624-.86593,1.25558-1.3125,1.875-.13882.19256-.29717.37106-.4375.5625-.17579.24263-.35462.50818-.53125.75l-1.34375,1.8125-.0937.125-.625.84375c-.1281.17204-.24648.35945-.375.53125-.17317.23265-.35799.4572-.53125.6875l-.65625.875-.0625.0625c-.13949.18496-.26492.37796-.40625.5625-.82553,1.08416-1.66236,2.14356-2.5,3.21875-.0503.0641-.10591.12337-.15625.1875-.20407.26019-.38897.52181-.59375.78125l-.0312.0312-.96875,1.21875c-.3093.39167-.59312.79881-.90625,1.1875-.5612.6993-1.1437,1.37746-1.71875,2.0625-.0752.0918-.1434.18953-.21875.28125-.11786.14347-.2256.29421-.34375.4375-.09.10729-.19213.20447-.28125.3125l-.0312.0312c-.0373.0451-.0878.0797-.125.125-.4744.57787-.9262,1.17807-1.40625,1.75l-.21875.25-.78125.9375c-.0149.0177-.0474.0447-.0625.0625l20.875,13.0625c.10235-.1264.2081-.25032.3125-.375 .30534-.36937.60244-.75435.90625-1.125 .33303-.40569.66916-.81203 1-1.21875 .66843-.82292 1.33907-1.6398 2-2.46875 1.10006-1.37972 2.17083-2.76001 3.25-4.15625 .9418-1.21848 1.88675-2.45662 2.8125-3.6875 .36905-.49068.72727-.97612 1.09375-1.46875 .0876-.11774.19169-.22574.28125-.34375l.78125-1.0625c.11515-.1564.22605-.315.34375-.46875 .25471-.34707.52449-.68362.78125-1.03125 .0966-.13271.18474-.27323.28125-.40625 .0447-.061.0799-.12735.125-.1875 .0438-.0605.0784-.12883.125-.1875 .0784-.10733.17241-.20529.25-.3125 .0173-.024.0453-.0386.0625-.0625 .35863-.4969.71174-.99768 1.0625-1.5 .47973-.68701.95538-1.37678 1.4375-2.0625 .20612-.29317.41853-.58209.625-.875 .15301-.21906.31604-.4377.46875-.65625 .4657-.66143.91536-1.3341 1.375-2l.5-.71875 .0625-.0937c.0712-.10525.14766-.20731.21875-.3125 .26499-.39211.51843-.79301.78125-1.1875l.4375-.65625c.494-.7401.98231-1.47615 1.46875-2.21875 .0127-.0192.0188-.0431.0312-.0625 .0998-.15331.18917-.31185.28125-.46875l-19.90625-14zm-534.43756,12.28125-17.7187,17.09375c.074.10361.1431.21014.2187.3125 .014.0184.018.0441.031.0625 .036.0487.058.10765.094.15625 .058.077.1316.14326.1875.21875 .017.0233.045.0391.062.0625l.5313.71875 .3437.46875c.04.0536.085.10267.125.15625 .1382.18511.2677.37759.4063.5625 .2447.32571.5041.64391.75.96875l1.7187,2.25c.2547.33064.494.67009.75,1 .027.0346.067.0591.094.0937 .3138.40411.6219.8176.9375,1.21875l.3125.40625c.041.0525.084.10375.125.15625 .1519.19305.3171.37107.4687.5625l.4688.59375c.2318.29028.4548.58548.6875.875l.2187.28125 .625.78125c.2982.3688.6067.72521.9063,1.09375 .1697.20625.3319.41885.5.625l1.25,1.53125c.3342.4049.6641.81545 1,1.21875 1.0427,1.23477 2.1012,2.45529 3.1562,3.6875l.6563.78125 .1875.21875 .2812.34375c.052.0626.1028.12579.1563.1875 .092.10581.1895.20681.2812.3125 .3954.44828.7931.89402 1.1875,1.34375 .8845,1.00186 1.7653,2.00769 2.6563,3 1.2855,1.43261 2.5958,2.84039 3.9062,4.25l18.3438-15.96875-.5-.53125c-.27-.28445-.5507-.55905-.8125-.84375-.4271-.46248-.8261-.94174-1.25-1.40625l-.031-.0312c-1.336-1.47509-2.6546-2.96595-3.9687-4.46875l-.4063-.46875c-.039-.0443-.087-.0806-.125-.125-.5732-.65632-1.1177-1.33868-1.6875-2-.4436-.51487-.9059-1.01268-1.3437-1.53125-.4518-.53083-.8978-1.0853-1.3438-1.625-.055-.0513-.1112-.10244-.1562-.15625-.01-.006.01-.025 0-.0312-.1221-.14663-.2486-.29206-.375-.4375l-.5625-.65625c-.051-.0612-.074-.095-.125-.15625-.3121-.37699-.659-.74636-.9688-1.125-.3791-.46158-.7489-.94299-1.125-1.40625-.5153-.63703-1.0199-1.26492-1.5312-1.90625-.25-.31348-.5019-.65478-.75-.96875-.7684-.97236-1.5247-1.95721-2.2813-2.9375-.1798-.23208-.3515-.4554-.5312-.6875-.1106-.14267-.2031-.29576-.3125-.4375-.3399-.44028-.6928-.86676-1.0313-1.3125-.6772-.89516-1.3951-1.78594-2.0625-2.6875-.1336-.17979-.2418-.35124-.375-.53125-.6133-.83214-1.1781-1.69282-1.7812-2.53125-.018-.0242-.045-.0389-.062-.0625l-.2813-.375c-.046-.0588-.08-.12595-.125-.1875zm506.84381,24.09375c-.15187.17642-.31509.35601-.46875.53125-.0306.0352-.0631.09-.0937.125l-1.25,1.40625c-.086.0966-.18819.18468-.28125.28125-.088.0914-.16693.19127-.25.28125-.11433.12533-.23055.24895-.34375.375-.0391.0436-.0859.0814-.125.125-.0151.017-.0159.0454-.0312.0625-.1423.15943-.29479.31046-.4375.46875l-1.3125,1.4375c-.20076.21747-.39348.43851-.59375.65625-.11475.12461-.22882.25053-.34375.375-.0898.0968-.19186.18456-.28125.28125-.0155.017-.0155.0454-.0312.0625-.11063.11976-.20173.25548-.3125.375-.10466.11233-.20771.23165-.3125.34375-.11403.12257-.2608.22131-.375.34375l-.0312.0312-.0625.0625c-.0832.0835-.16941.16369-.25.25-.29254.31216-.58129.62658-.875.9375-.10621.11255-.20585.23121-.3125.34375-.35198.36647-.71052.72558-1.0625,1.09375l-.15625.15625c-.1656.17304-.33404.35859-.5.53125-.005.006.005.0257 0,.0312-.38154.39823-.74037.79155-1.125,1.1875-.45821.47312-.94078.9346-1.40625,1.40625-.0776.0787-.14137.17161-.21875.25-.0895.0972-.18765.18634-.28125.28125l-.84375.84375c-.0224.0237-.0396.0709-.0625.0937-.0469.0469-.10945.0779-.15625.125l-.0937.0937c-.21788.20927-.44163.41328-.65625.625-.17183.17199-.3278.35971-.5.53125-.43422.42461-.84927.8563-1.28126,1.28125-.1466.14422-.2906.29354-.4375.4375l-.875.84375c-.7063.68828-1.4083,1.37852-2.125,2.0625-.015.0154-.047.0165-.062.0312-.06.0569-.095.13188-.1562.1875-.1071.10207-.2317.18461-.3438.28125l-.062.0625-.094.0625-.062.0625-.062.0625c-.6603.6258-1.3062,1.28786-1.9687,1.90625-.1749.1627-.3811.30883-.5625.46875l-.062.0625-.031.0312-.094.0937c-.05.0448-.1068.0805-.1563.125l-.031.0312c-.1847.17085-.3775.32964-.5625.5-.3242.30654-.6306.62819-.9687.9375-.1654.15118-.3344.31802-.5.46875-.2256.20471-.4602.42236-.6875.625-.2029.18368-.42.35073-.625.53125-.3375.29704-.664.60623-1,.90625l18.81246,15.875 .0625-.0625c1.92218-1.75137 3.81026-3.52369 5.6875-5.3125s3.73063-3.58169 5.5625-5.40625c5.49563-5.47367 10.78824-11.12082 15.875-16.90625l-17.75-16.65625zm-477.25001,11.4375-15.0625,19.375c.2734.27924.5385.5666.8125.84375l.2812.28125c.9423.95335 1.8888,1.90263 2.8438,2.84375 .2152.21208.4405.41348.6562.625 1.0872,1.06585 2.1807,2.13463 3.2813,3.1875 .5422.51827 1.0799,1.05032 1.625,1.5625 .1124.10625.2311.20639.3437.3125 .3319.31116.6665.62615 1,.9375 1.3537,1.26544 2.7194,2.50765 4.0938,3.75 1.8093,1.63558 3.6252,3.24592 5.4687,4.84375 1.2143,1.05243 2.4549,2.08505 3.6875,3.125 1.0608.89172 2.1163,1.77754 3.1875,2.65625 .5255.43104 1.0645.85085 1.5938,1.28125l15.9375-18.40625-.375-.3125c-.7553-.61105-1.5002-1.22881-2.25-1.84375-.7875-.64582-1.5614-1.31243-2.3438-1.96875l-.375-.3125c-.068-.0578-.1505-.0983-.2187-.15625-.2356-.19943-.4837-.39356-.7188-.59375-.1214-.10381-.2223-.20938-.3437-.3125l-1.1875-1c-.3544-.30552-.6877-.62614-1.0313-.9375l-.2187-.1875-.1875-.15625-.062-.0625-.031-.0312c-.041-.0326-.088-.0622-.125-.0937-.2389-.20445-.5138-.38646-.75-.59375-.4373-.38388-.8532-.79156-1.2812-1.1875-.055-.0487-.1014-.10749-.1563-.15625-.3499-.31289-.7093-.62206-1.0625-.9375l-.7187-.65625c-.04-.0356-.085-.0581-.125-.0937-.6854-.61806-1.3837-1.22008-2.0625-1.84375-.2362-.21701-.4612-.43736-.6875-.65625l-.125-.125c-.1319-.12736-.271-.24779-.4063-.375l-.031-.0312-.062-.0625c-.7786-.7237-1.5683-1.44956-2.3438-2.1875-.2774-.26278-.536-.51734-.8125-.78125-.1058-.10162-.2081-.20822-.3125-.3125-.2038-.19502-.3928-.39862-.5937-.59375-.048-.0461-.1068-.0804-.1563-.125-.2409-.21714-.4863-.43082-.7187-.65625-.5344-.51823-1.0392-1.06494-1.5625-1.59375-.1107-.10884-.2332-.20344-.3438-.3125l-.8437-.84375-.125-.125-.1875-.1875-1.125-1.125-.8125-.8125-.4063-.40625-.3437-.34375c-.1989-.18794-.405-.36913-.5938-.5625-.3326-.34081-.6393-.68999-.9687-1.03125l-.031-.0312-.094-.0937c-.1454-.13517-.2994-.26294-.4375-.40625zm445,20.59375c-1.445,1.24781-2.9329,2.50262-4.4062,3.71875-.5694.47407-1.1466.90534-1.7188,1.375-.3744.30416-.749.63504-1.125.9375-.5143.41833-1.0437.78072-1.5625,1.1875-.046.0364-.079.0881-.125.125-1.0828.87207-2.1843,1.73699-3.2812,2.59375-.035.0271-.059.0667-.094.0937-.2373.18982-.4789.37671-.7188.5625-.065.0528-.1526.10433-.2187.15625-.082.0638-.1675.1239-.25.1875l-.1563.125-.062.0312-.094.0625c-.398.3094-.7883.63244-1.1875.9375l-.031.0312c-.032.0224-.061.0453-.094.0625-.01.005-.025-.005-.031,0-.2517.19689-.4893.39584-.75.59375-.058.0438-.1295.11256-.1875.15625l-.25.1875c-.2313.17378-.4539.35995-.6875.53125-.01.005-.025-.005-.031,0s-.024-.005-.031,0l-.062.0625c-.1509.12112-.3129.25881-.4687.375s-.338.22332-.5.34375c-.4013.29942-.785.61017-1.1875.90625l-.1875.125-.5.34375c-.078.0566-.1412.13079-.2188.1875-.1436.10526-.2934.2075-.4375.3125-.151.10865-.3155.20263-.4687.3125-.1821.13045-.3529.27685-.5313.40625-.085.061-.1648.1264-.25.1875l-.7187.53125-.031.0312c-.04.0234-.084.033-.125.0625-.1071.0791-.2051.17311-.3125.25-.051.037-.1038.0584-.1563.0937l-.062.0312-.5312.375-.2188.15625c-.5562.39718-1.1082.80149-1.6562,1.1875-.038.0262-.088.0363-.125.0625l-.125.0937-.2188.15625-.031.0312c-.1221.0879-.252.16468-.375.25-.24.17315-.4766.3567-.7187.53125l-.1563.0937c-.1579.10893-.3108.20353-.4687.3125l-.1875.125c-.6814.46718-1.3456.94377-2.0313,1.40625-.071.0537-.1473.1027-.2187.15625-.1314.0984-.2685.18865-.4063.28125-.4441.31641-.8879.63423-1.3436.9375l16.3749,18.34375 .062-.0312 .1875-.125c.2289-.16686.4552-.34117.6875-.5l.375-.25 .094-.0625c.051-.0354.1048-.0584.1562-.0937 .1427-.0981.295-.18266.4375-.28125l.031-.0312c.8486-.58734 1.6891-1.18922 2.5313-1.78125 .073-.0517.145-.10532.2187-.15625 .2994-.21079.6067-.41272.9063-.625 .1272-.0902.2475-.19087.375-.28125l2-1.4375 1.375-1 .062-.0312c.3072-.22421.6009-.4626.9062-.6875 3.2103-2.35629 6.4065-4.75652 9.5313-7.21875l.031-.0312c.075-.0597.1432-.12772.2187-.1875l.125-.0937c.7527-.59756 1.5009-1.20853 2.25-1.8125 .2771-.22341.566-.43356.8438-.65625 .8068-.65454 1.6098-1.30697 2.4062-1.96875 .1481-.1222.2896-.25256.4375-.375l.1875-.15625 .375-.3125c1.4136-1.17606 2.7951-2.36616 4.1875-3.5625l-15.25-18.96875zm-411.0625,9.96875-12.1875,21.3125 .062.0625c.4723.3605.932.73569 1.4062,1.09375 .1546.11672.3142.22751.4688.34375 .2615.19678.5192.39771.7812.59375l.9375.71875c.7539.55888 1.5196,1.10008 2.2813,1.65625 .2165.1581.4393.31048.6562.46875 .2644.19244.5164.4021.7813.59375 .049.0357.1071.0583.1562.0937 1.7459,1.26031 3.5125,2.49081 5.2813,3.71875 1.9159,1.33015 3.8392,2.64561 5.7812,3.9375s3.9075,2.55915 5.875,3.8125c1.6726,1.0655 3.3425,2.1444 5.0313,3.1875 .2582.15953.5223.31066.7812.46875l13.3125-20.40625-.25-.15625-.375-.1875c-.633-.38554-1.2446-.79477-1.875-1.1875-1.4642-.91218-2.928-1.83965-4.375-2.78125-.1224-.0786-.2531-.14041-.375-.21875-.163-.10396-.3105-.23184-.4687-.34375l-.1563-.0937c-.2522-.16343-.5001-.30003-.75-.46875l-.062-.0312c-.048-.0312-.077-.0937-.125-.125-.1522-.0987-.3164-.18201-.4687-.28125l-1.0625-.6875c-.055-.0362-.1013-.0877-.1563-.125-.1376-.0914-.2687-.18978-.4062-.28125-.055-.0364-.1017-.0574-.1563-.0937-.095-.0614-.1876-.12487-.2812-.1875l-.094-.0625c-.4289-.28895-.8517-.58625-1.2812-.875-.038-.0258-.087-.0366-.125-.0625l-.5-.34375c-.055-.0371-.1012-.0872-.1563-.125-.1706-.117-.3612-.19778-.5312-.3125-.2509-.16922-.495-.35859-.75-.53125-.332-.22471-.6753-.43323-1-.65625l-.062-.0625-.031-.0312c-.1874-.11437-.3815-.21818-.5625-.34375-.3624-.25048-.7061-.52431-1.0625-.78125-.1543-.10822-.3152-.20425-.4687-.3125-.024-.0167-.039-.0458-.062-.0625-.3542-.24619-.7099-.46997-1.0625-.71875-.1814-.12796-.3511-.2744-.5313-.40625-.028-.0193-.061-.0457-.094-.0625-.01-.005-.024.005-.031,0l-.031-.0312-.2188-.15625c-.097-.0692-.1843-.14971-.2812-.21875-.9091-.64734-1.8127-1.27754-2.7188-1.9375-.2638-.19212-.5176-.3998-.7812-.59375l-1.0938-.8125c-.4974-.3696-1.0067-.72456-1.5-1.09375-.17-.12725-.3615-.2474-.5312-.375-.1112-.0835-.2014-.19773-.3125-.28125-.1901-.14368-.373-.2943-.5625-.4375l-.094-.0625-.3125-.25c-.1045-.0762-.2086-.14518-.3125-.21875-.3473-.24595-.6912-.48778-1.0312-.75-.025-.0184-.038-.0752-.062-.0937l-1.0313-.78125c-.026-.0201-.068-.0427-.094-.0625l-.3125-.25c-.1121-.087-.2631-.16282-.375-.25zm374.4063,17.34375-.5625.375c-1.9424,1.24041-3.9218,2.43942-5.9062,3.625l-1.25.75c-.2829.17369-.5578.36051-.8438.53125-.4314.25869-.8736.50159-1.3125.75-.1463.0828-.2925.16467-.4375.25-.2415.14287-.4769.29636-.7187.4375-.089.0523-.1612.10402-.25.15625-.1633.0976-.3324.18356-.5.28125l-1.0625.625c-.018.0103-.013.0212-.031.0312l-.125.0625-.3437.1875c-.1173.0675-.2266.1514-.3438.21875l-1.1875.6875-.4687.28125c-.046.0262-.1013.0454-.1563.0625l-.094.0312-.2813.15625-.125.0625-1.3437.75-.2188.125c-.1438.0797-.2624.17039-.4062.25-.1745.0964-.3567.18521-.5313.28125-.1097.0604-.2029.12727-.3125.1875-.2046.12247-.4178.2301-.625.34375l-.9687.53125c-.5788.31476-1.1697.59923-1.75.90625l-.094.0625c-.3323.18066-.6715.34686-1,.53125l-.094.0625-.3438.1875c-.074.0401-.1439.0856-.2187.125-1.1616.61353-2.3339,1.21482-3.5,1.8125-.1599.082-.3081.16942-.4688.25-.2286.11642-.4581.22775-.6875.34375-1.2028.60824-2.4129,1.21496-3.6251,1.8125l-.094.0312c-.2007.0988-.3928.21463-.5938.3125-.1275.0623-.2474.12532-.375.1875l13.7814,20.34375c1.3675-.68695 2.7398-1.36885 4.0937-2.0625 2.001-1.02519 3.9934-2.06164 5.9688-3.125 .029-.0155.063-.0194.094-.0312l.125-.0625c.086-.0464.1637-.11048.25-.15625 .2216-.11981.4348-.25457.6563-.375 1.4428-.7845 2.8828-1.57301 4.3125-2.375l.062-.0312c.2315-.13032.4577-.27433.6875-.40625 .1265-.0715.2483-.14803.375-.21875h.031l.2188-.125c1.7312-.98714 3.4399-1.98463 5.1562-3 2.1315-1.26098 4.2597-2.56072 6.375-3.875l.125-.0625 1.375-.875 1.4062-.875c.2052-.12985.4194-.24572.625-.375l-12.4687-20.96875zm-338.3751,7.0625-9.25,22.78125c1.5112.86328 3.0393,1.7224 4.5625,2.5625 .4049.22349.8133.43454 1.2188.65625 .065.0361.1221.0895.1875.125h.031l.1875.0937c1.1662.63522 2.3264,1.25292 3.5,1.875l.1875.0937c.3557.18828.708.34191 1.0625.53125 .8193.42784 1.6136.89051 2.4375,1.3125l.1875.0937 1.4063.71875c.025.0127.037.0498.062.0625 .038.027.085.0397.125.0625 .028.016.065.0166.094.0312 .013.006.019.025.031.0312l.1875.0937c.05.0251.1062.0374.1562.0625 2.0811,1.04437 4.1713,2.05315 6.2813,3.0625 .9133.43689 1.8313.88273 2.75,1.3125 1.2602.58957 2.5421,1.17394 3.8125,1.75l.5.21875c1.9806.89429 3.9919,1.76158 6,2.625l10.3125-22.03125c-.2821-.12031-.5618-.25279-.8438-.375-.326-.14057-.644-.29633-.9687-.4375-1.146-.49812-2.2928-.98594-3.4375-1.5-.1192-.0534-.2561-.10252-.375-.15625-.5558-.25041-1.1016-.52753-1.6563-.78125l-2.0625-.96875c-.478-.22089-.9631-.43232-1.4375-.65625-.1536-.0723-.2842-.11439-.4375-.1875-.5787-.27441-1.145-.56618-1.7187-.84375-.7372-.35663-1.4809-.70013-2.2188-1.0625l-.1562-.0625-.625-.3125-1-.5c-1.2231-.60787-2.4395-1.21948-3.6563-1.84375-.9583-.49273-1.9224-.99805-2.875-1.5-.2184-.11546-.438-.2589-.6562-.375-.2995-.16083-.6071-.30982-.9063-.46875-.056-.0298-.1319-.064-.1875-.0937-.038-.0172-.056-.0426-.094-.0625-.2673-.14298-.5458-.26247-.8125-.40625-.059-.0313-.098-.0624-.1563-.0937-1.1657-.62901-2.3412-1.26461-3.5-1.90625l-1.5312-.84375-.5-.28125c-.6282-.35494-1.2496-.7035-1.875-1.0625l-.5938-.34375c-.2224-.12737-.4335-.27683-.6562-.40625-.3706-.19658-.7299-.38144-1.0938-.59375zm300.2813,13.9375c-.1443.0673-.2931.0892-.4375.15625-2.0347.94569-4.0655,1.91447-6.125,2.8125-.2828.12386-.5918.2207-.875.34375-.061.0257-.1268.0361-.1875.0625l-1.6563.71875-1.6562.6875h-.031c-.3376.14412-.6616.32737-1,.46875-.7028.29358-1.4172.56109-2.125.84375-.6377.25469-1.2685.52493-1.9062.78125-.9056.36396-1.8109.70719-2.7188,1.0625-.074.0287-.1445.0651-.2187.0937l-.4375.15625c-.1177.0476-.2289.11157-.3438.15625-.2368.0906-.4504.19107-.6875.28125l-.5937.21875c-1.9297.74107-3.8404,1.45645-5.7813,2.15625l-1.2812.4375c-.367.1287-.7264.27902-1.0938.40625-.051.0133-.1051.0133-.1562.0312-.439.15188-.8737.31679-1.3125.46875l-1.5625.53125c-.036.0131-.058.0506-.094.0625-.082.0278-.166.0449-.25.0625-.019.007-.044-.007-.062,0-.4698.16586-.938.34344-1.4062.5-.1543.0574-.3127.10405-.4688.15625-.1794.0607-.3504.12783-.5312.1875l-.2188.0625-.375.125c-.2988.10663-.5784.20437-.875.3125l-.2812.0937c-.2619.0943-.5142.19514-.7813.28125l10.7813,22.0625c1.7636-.58256 3.53-1.16763 5.2812-1.78125l.094-.0312 .625-.21875c.067-.0237.1192-.0695.1875-.0937 1.8978-.67153 3.7967-1.35769 5.6875-2.0625l1-.375 2.2187-.84375 .1875-.0625 .7188-.28125 .5625-.21875c1.139-.4442 2.272-.88768 3.4062-1.34375l.3125-.125c.1873-.0756.3756-.14287.5625-.21875 .1559-.0633.313-.12404.4688-.1875l.2187-.0937c.013-.006.018-.0259.031-.0312 1.0078-.41227 1.9913-.82663 3-1.25 1.5412-.6469 3.0886-1.29798 4.625-1.96875 .081-.0355.1686-.0584.25-.0937 1.3023-.56646 2.608-1.13419 3.9062-1.71875 .1051-.0476.2074-.10876.3125-.15625 .047-.0215.1088-.0723.1563-.0937l.062-.0312 2.4063-1.09375-9.5313-22.40625zm-259.3125,6.25-5.9375,23.8125c1.7214.6845 3.424,1.37476 5.1562,2.03125 1.4812.55975 2.9802,1.11665 4.4688,1.65625l2.6562.96875c.8748.30919 1.7477.60406 2.625.90625 1.5134.52423 3.0465,1.02905 4.5625,1.53125 1.2221.40122 2.4564.79633 3.6875,1.1875 .1884.0599.3742.12829.5625.1875 1.2768.39786 2.5641.80425 3.8438,1.1875 .2903.0877.5847.16284.875.25 .5212.1547 1.0408.31639 1.5625.46875 2.1766.6357 4.3469,1.24733 6.5312,1.84375l7.1563-23.25-.6875-.1875-.094-.0312-1.8437-.53125c-.168-.0471-.3317-.11016-.5-.15625-.3011-.0844-.6055-.16486-.9063-.25-.019-.005-.043.005-.062,0-1.2736-.36298-2.5416-.74788-3.8125-1.125-.3005-.0892-.606-.15936-.9062-.25-.147-.0444-.3221-.0797-.4688-.125-.1601-.0488-.3086-.1074-.4687-.15625-.7188-.21935-1.4363-.46041-2.1563-.6875-1.3152-.40968-2.632-.8225-3.9375-1.25-1.2359-.40234-2.4552-.79845-3.6875-1.21875-.012-.004-.019-.0271-.031-.0312-.019-.006-.044.006-.062,0-.6475-.22103-1.2919-.45401-1.9375-.6875-.5551-.18976-1.1023-.40059-1.6563-.59375-.4979-.17358-1.0039-.32223-1.5-.5-1.1639-.41688-2.3398-.85043-3.5-1.28125l-.5312-.21875c-.5019-.18834-1.0185-.37129-1.5313-.5625-.1476-.0561-.2909-.12584-.4375-.1875l-.4062-.15625c-.2499-.0958-.5002-.18505-.75-.28125-.092-.0355-.1889-.0586-.2813-.0937-.1263-.0489-.2486-.0762-.375-.125-.3882-.15045-.77-.31376-1.1562-.46875-.1879-.072-.3746-.14492-.5625-.21875-.4026-.15873-.7892-.33849-1.1875-.5-.091-.0377-.1902-.056-.2813-.0937l-2.0312-.8125zm216.625,10.0625-.4063.125c-.3866.1158-.7741.23017-1.1562.34375l-1.8125.53125c-1.291.37614-2.6028.70667-3.9063,1.0625-.6275.17129-1.2479.36271-1.875.53125-.2196.059-.4368.12871-.6562.1875-1.5444.41382-3.0783.79993-4.625,1.1875-.2309.0578-.4566.13018-.6875.1875-.061.0168-.1277.0162-.1875.0312l-.094.0312c-.7151.17677-1.4387.35905-2.1562.53125-.176.0463-.3548.0823-.5313.125l-.25.0625c-.4757.11476-.93.263-1.4062.375-.5812.13786-1.1687.27175-1.75.40625-.5497.12607-1.1035.23247-1.6563.34375l-.75.15625-.2812.0625-.125.0312-.7813.1875c-1.211.26333-2.412.53208-3.625.78125-.2043.0424-.417.058-.625.0937-.085.0146-.1668.0453-.25.0625-.7256.15036-1.4303.32546-2.1562.46875-1.1017.21528-2.2095.42136-3.3125.625l-.6563.125c-.3407.0622-.6879.0988-1.0312.15625-.7104.11879-1.4193.25341-2.125.375l-.5313.0937-.375.0625 7.5625,23.40625 .1875-.0312c1.7338-.31412 3.4658-.6303 5.1875-.96875 5.165-1.01536 10.2726-2.14938 15.3438-3.375l.2812-.0625 .2813-.0625c1.0524-.25622 2.106-.5126 3.1562-.78125 .2301-.0591.4576-.12792.6875-.1875 .3294-.0851.6397-.16387.9688-.25l.875-.21875 .094-.0312c1.9134-.50738 3.8183-1.02445 5.7188-1.5625l.1875-.0625 .094-.0312 1.875-.53125c.7402-.21462 1.4809-.43714 2.2188-.65625l1.375-.40625-6.3125-23.53125zm-173.6875,4.0625-2.5625,24.4375c1.2081.2955 2.4159.59484 3.625.875 1.472.33752 2.929.67758 4.4062,1 .3428.0749.6885.14494 1.0313.21875l1.9375.40625c.804.16661 1.5998.33878 2.4062.5l1.0938.21875c1.4066.27972 2.8117.55207 4.2187.8125 .28.0518.563.10538.8438.15625l.375.0625c.2818.0505.5621.10568.8437.15625 .03.005.063-.005.094,0l.5937.0937 1.5313.28125c.9047.16366 1.8101.32042 2.7187.46875l1.5625.25 1.3438.21875 .5625.0937 .8125.125 .6875.0937c.5807.0863 1.1675.16628 1.75.25h.094l.875.125c1.0261.14931 2.0335.30171 3.0625.4375 .4902.0644.9781.12548 1.4688.1875l.4687.0625 3.8125-24.09375-.3437-.0312c-.043-.007-.081.006-.125,0-2.2293-.2801-4.4694-.61142-6.6875-.9375-.1531-.0223-.2846-.008-.4375-.0312s-.3161-.0707-.4688-.0937l-1.3437-.21875-.625-.0937c-2.2527-.35204-4.5098-.6949-6.75-1.09375-1.5617-.27797-3.1064-.5972-4.6563-.90625-.4365-.0835-.8761-.16461-1.3125-.25l-.5937-.125-.1563-.0312-2.5625-.5c-.084-.0173-.1663-.0451-.25-.0625-.4903-.096-.985-.17773-1.4687-.28125-.4408-.0943-.8764-.20408-1.3125-.3125-.8853-.19244-1.7718-.39323-2.6563-.59375-.4804-.10823-.9564-.23543-1.4375-.34375-.6984-.16189-1.3958-.30176-2.0937-.46875l-.4375-.0937-2.3125-.5625c-.5081-.12555-1.0566-.24685-1.5625-.375l-.062-.0312zm128.6562,6.15625c-1.3165.2031-2.6437.38289-3.9687.5625-.3653.0495-.7288.10822-1.0938.15625-.05.007-.1037-.003-.1562,0l-.2188.0312c-.2915.0399-.5833.11711-.875.15625-.6435.0857-1.2626.16821-1.9062.25s-1.2964.14318-1.9375.21875l-.5313.0625c-.3024.041-.6037.0896-.9062.125-.042.005-.083-.004-.125,0h-.094c-.4223.0494-.859.1088-1.2812.15625l-.5313.0625c-2.0721.22951-4.1444.4377-6.2187.625-.2436.0222-.4751.072-.7188.0937-.3622.0319-.7325.0332-1.0937.0625-.4597.0355-.9205.0573-1.375.0937l-.7188.0625-1.25.0937c-.209.0157-.4152.0474-.625.0625l-1,.0625-.2812.0312c-.3683.0258-.7569.038-1.125.0625l-.5313.0312c-.2812.0233-.5634.0451-.8437.0625l-.6563.0312h-.031l-.75.0312h-.031-.1562l-.4375.0312c-.947.0517-1.8954.11168-2.8438.15625h-.1875c-.7622.0354-1.5515.0649-2.3125.0937-.1567.006-.3122.0253-.4687.0312-.7756.03-1.5426.10141-2.3125.125-.2005.008-.4241-.006-.625,0l4.2187,24.21875c.4884-.0177.9811-.0113 1.4688-.0312 2.2826-.0933 4.5713-.20666 6.8437-.34375h.094l.3125-.0312c1.1494-.0706 2.2936-.1372 3.4375-.21875l.3437-.0312 .8125-.0625 .8438-.0625 1.5312-.125c.073-.006.1454-.0252.2188-.0312 1.3474-.1106 2.6876-.25048 4.0312-.375 1.9288-.18812 3.8807-.37285 5.8125-.59375l.3438-.0312 1.75-.21875c3.6612-.44088 7.3269-.94236 11-1.5l-2.8438-24.1875zm-83.6875,1.90625 .9063,24.5625h.094c1.1163.10715 2.2282.21577 3.3438.3125l1.125.0937h.031l3,.25 .4063.0312h.125l.9375.0625c.5628.0404 1.125.0873 1.6875.125l.5937.0312 .5625.0312 .5313.0312c.4475.0275.8963.068 1.3437.0937l1.1563.0625c1.1435.0622 2.2947.10532 3.4375.15625 1.5273.0681 3.0365.13964 4.5625.1875 .2083.005.4161.0253.625.0312 .522.0153 1.0422.0232 1.5625.0312l1.9062.0312 1.5625.0312c1.1693.0175 2.3315.0258 3.5.0312h1.5625c1.0024,0 1.9991-.024 3-.0312l.5625-24.3125h-.7187c-.3729.004-.7194-.0312-1.0938-.0312h-1.2812-1.4063c-.5569-.003-1.1302.006-1.6875,0h-.9375c-.8803-.009-1.7463-.013-2.625-.0312-.2549-.006-.4949-.0266-.75-.0312-1.2195-.0226-2.4675-.0201-3.6875-.0625l-.75-.0312c-1.1987-.0415-2.3964-.12685-3.5937-.1875h-.031c-.5549-.0252-1.1029-.0652-1.6562-.0937h-.2188c-.3028-.0173-.6041-.0455-.9062-.0625l-1.0313-.0625h-.1875-.031l-1.9375-.125-.9688-.0625c-.4789-.0329-.9584-.0313-1.4375-.0625-.1006-.007-.186-.0471-.2812-.0625h-.25c-.062-.005-.1257.005-.1875,0-.7683-.0571-1.5448-.15961-2.3125-.21875l-.2813-.0312h-.062l-.375-.0312c-.47-.0368-.9373-.0862-1.4062-.125-.8853-.0732-1.7713-.13841-2.6563-.21875-1.1029-.10007-2.2131-.16352-3.3125-.28125-.023-.001-.039-.0299-.062-.0312z" fill="url(#a)"/>
   <path d="m-1227.2-23.758c-179.27 0-324.64 145.37-324.64 324.64s145.37 324.59 324.64 324.59 324.59-145.32 324.59-324.59-145.32-324.64-324.59-324.64zm0 0.71778c178.89 0 323.87 145.03 323.87 323.92s-144.98 323.87-323.87 323.87-323.92-144.98-323.92-323.87 145.03-323.92 323.92-323.92z" fill="#292929"/>
   <path d="m-1227.2 66.818c-129.24 0-234.06 104.82-234.06 234.06s104.82 234.02 234.06 234.02 234.02-104.78 234.02-234.02-104.78-234.06-234.02-234.06zm0 2.5029c127.89 0 231.52 103.67 231.52 231.56s-103.63 231.52-231.52 231.52-231.56-103.63-231.56-231.52 103.67-231.56 231.56-231.56z" fill="#5d5b5d"/>
   <path d="m-1227.2 56.919c-134.71 0-243.96 109.25-243.96 243.96s109.25 243.92 243.96 243.92 243.92-109.21 243.92-243.92-109.21-243.96-243.92-243.96zm0 2.6088c133.3 0 241.31 108.05 241.31 241.35s-108.02 241.31-241.31 241.31-241.35-108.02-241.35-241.31 108.05-241.35 241.35-241.35z" fill="#2d2d2d"/>
  </g>
  <path d="m-1130.1 44.548c-156.74 0-283.83 127.1-283.83 283.83s127.1 283.79 283.83 283.79 283.79-127.05 283.79-283.79-127.05-283.83-283.79-283.83zm0 0.62755c156.4 0 283.16 126.8 283.16 283.21s-126.76 283.16-283.16 283.16-283.21-126.76-283.21-283.16 126.8-283.21 283.21-283.21z" fill="#606060"/>
  <path d="m-1130.1 36.897c-160.96 0-291.49 130.52-291.49 291.49s130.52 291.44 291.49 291.44 291.44-130.48 291.44-291.44-130.48-291.49-291.44-291.49zm0 0.64447c160.62 0 290.79 130.22 290.79 290.84s-130.18 290.79-290.79 290.79-290.84-130.18-290.84-290.79 130.22-290.84 290.84-290.84z" fill="#606060"/>
  <path d="m-1130.1 18.025c-171.39 0-310.36 138.97-310.36 310.36s138.97 310.31 310.36 310.31 310.31-138.92 310.31-310.31-138.92-310.36-310.31-310.36zm0 0.6862c171.02 0 309.62 138.65 309.62 309.67s-138.6 309.62-309.62 309.62-309.67-138.6-309.67-309.62 138.65-309.67 309.67-309.67z" fill="#606060"/>
  <path d="m-1130.1 28.226c-165.75 0-300.16 134.41-300.16 300.16s134.41 300.11 300.16 300.11 300.11-134.36 300.11-300.11-134.36-300.16-300.11-300.16zm0 0.66364c165.4 0 299.45 134.1 299.45 299.49s-134.05 299.45-299.45 299.45-299.49-134.05-299.49-299.45 134.1-299.49 299.49-299.49z" fill="#606060"/>
 </g>
</svg>
